<?xml version="1.0" encoding="utf-8"?>
<!-- Generator: Adobe Illustrator 26.0.2, SVG Export Plug-In . SVG Version: 6.00 Build 0)  -->
<svg version="1.1" id="Layer_1" xmlns="http://www.w3.org/2000/svg" xmlns:xlink="http://www.w3.org/1999/xlink" x="0px" y="0px"
	 viewBox="0 0 96 96" style="enable-background:new 0 0 96 96;" xml:space="preserve">
<style type="text/css">
	.st0{fill:#FFFFFF;}
</style>
<g>
	<path class="st0" d="M48.2,83.4c-4.8,0-9.1-0.9-12.9-2.7c-3.8-1.8-6.7-4.2-8.9-7.3c-2.2-3.1-3.4-6.7-3.4-10.7h14.3
		c0.2,2.7,1.3,4.9,3.4,6.6s4.6,2.5,7.5,2.5c2.3,0,4.4-0.5,6.2-1.6s3.2-2.5,4.2-4.3c1-1.9,1.5-4,1.5-6.4c0-2.5-0.5-4.6-1.6-6.5
		c-1-1.9-2.5-3.3-4.3-4.4c-1.8-1-3.9-1.6-6.2-1.6c-2,0-4,0.4-5.9,1.3c-1.9,0.8-3.4,2-4.5,3.4l-13.1-2.4l3.3-36.8h42.7v12.1H39.9
		l-1.8,17.5h0.4c1.2-1.7,3.1-3.2,5.6-4.3c2.5-1.1,5.2-1.7,8.3-1.7c4.2,0,8,1,11.2,3c3.3,2,5.9,4.7,7.8,8.1s2.9,7.4,2.8,11.9
		c0,4.7-1.1,8.9-3.3,12.5c-2.2,3.6-5.2,6.5-9.2,8.6C58,82.3,53.4,83.4,48.2,83.4z"/>
</g>
</svg>
