<?xml version="1.0" encoding="utf-8"?>
<!-- Generator: Adobe Illustrator 26.0.2, SVG Export Plug-In . SVG Version: 6.00 Build 0)  -->
<svg version="1.1" id="Layer_1" xmlns="http://www.w3.org/2000/svg" xmlns:xlink="http://www.w3.org/1999/xlink" x="0px" y="0px"
	 viewBox="0 0 96 96" style="enable-background:new 0 0 96 96;" xml:space="preserve">
<style type="text/css">
	.st0{fill:#FFFFFF;}
</style>
<g>
	<path class="st0" d="M48.9,83.9c-3.6,0-7.1-0.6-10.4-1.8c-3.3-1.2-6.3-3.1-8.9-5.8s-4.7-6.2-6.3-10.6C21.8,61.3,21,56,21,49.6
		c0-5.9,0.7-11.1,2-15.7c1.3-4.6,3.2-8.6,5.7-11.8s5.5-5.7,8.9-7.4c3.5-1.7,7.4-2.5,11.7-2.5c4.7,0,8.8,0.9,12.3,2.7
		c3.6,1.8,6.4,4.3,8.6,7.3c2.2,3.1,3.5,6.6,3.9,10.4H59.7c-0.6-2.4-1.8-4.3-3.6-5.7c-1.8-1.4-4.1-2.1-6.8-2.1c-4.5,0-8,2-10.3,5.9
		s-3.6,9.3-3.6,16.1h0.5c1-2.1,2.5-3.8,4.2-5.3c1.8-1.5,3.8-2.6,6.1-3.4c2.3-0.8,4.7-1.2,7.2-1.2c4.1,0,7.8,1,11,2.9
		c3.2,1.9,5.8,4.6,7.6,8c1.9,3.4,2.8,7.3,2.8,11.6c0,4.7-1.1,8.9-3.3,12.6c-2.2,3.7-5.2,6.6-9.2,8.6C58.6,82.9,54.1,83.9,48.9,83.9z
		 M48.8,72.3c2.3,0,4.3-0.5,6.1-1.6c1.8-1.1,3.2-2.6,4.2-4.4c1-1.9,1.5-4,1.5-6.3s-0.5-4.4-1.5-6.2c-1-1.8-2.4-3.3-4.2-4.4
		s-3.8-1.6-6.1-1.6c-1.7,0-3.3,0.3-4.7,1c-1.4,0.6-2.7,1.5-3.8,2.7c-1.1,1.1-1.9,2.4-2.5,3.9C37.3,56.7,37,58.3,37,60
		c0,2.2,0.5,4.3,1.6,6.2c1,1.9,2.4,3.4,4.2,4.5S46.5,72.3,48.8,72.3z"/>
</g>
</svg>
