<?xml version="1.0" encoding="utf-8"?>
<!-- Generator: Adobe Illustrator 26.0.2, SVG Export Plug-In . SVG Version: 6.00 Build 0)  -->
<svg version="1.1" id="Layer_1" xmlns="http://www.w3.org/2000/svg" xmlns:xlink="http://www.w3.org/1999/xlink" x="0px" y="0px"
	 viewBox="0 0 96 96" style="enable-background:new 0 0 96 96;" xml:space="preserve">
<style type="text/css">
	.st0{fill:#FFFFFF;}
</style>
<g>
	<path class="st0" d="M48,83.9c-5.2,0-9.9-0.9-14-2.6s-7.3-4.1-9.6-7s-3.5-6.4-3.5-10.1c0-2.9,0.7-5.6,2-8c1.3-2.4,3.1-4.5,5.4-6.1
		c2.3-1.6,4.9-2.7,7.7-3.1v-0.5c-3.7-0.8-6.7-2.6-9.1-5.4s-3.5-6.2-3.5-10c0-3.6,1.1-6.8,3.2-9.7c2.1-2.8,5-5.1,8.7-6.7
		c3.7-1.6,7.9-2.4,12.6-2.4c4.7,0,8.9,0.8,12.6,2.5c3.7,1.6,6.6,3.9,8.7,6.7s3.2,6,3.2,9.6c0,3.8-1.2,7.2-3.5,10.1
		c-2.3,2.9-5.3,4.7-9,5.4v0.5c2.8,0.5,5.3,1.5,7.6,3.1s4.1,3.7,5.5,6.1s2,5.1,2.1,8c0,3.8-1.2,7.1-3.5,10.1c-2.3,3-5.5,5.3-9.6,7
		S53.2,83.9,48,83.9z M48,73c2.3,0,4.4-0.4,6.1-1.3s3.1-2,4.1-3.5c1-1.5,1.5-3.3,1.5-5.2c0-2-0.5-3.8-1.5-5.4s-2.4-2.8-4.2-3.7
		c-1.8-0.9-3.8-1.3-6-1.3c-2.2,0-4.3,0.4-6,1.3c-1.8,0.9-3.2,2.1-4.2,3.7c-1,1.6-1.5,3.3-1.5,5.4c0,2,0.5,3.7,1.5,5.2
		c1,1.5,2.4,2.7,4.1,3.5C43.6,72.6,45.7,73,48,73z M48,41.8c2,0,3.7-0.4,5.2-1.2c1.5-0.8,2.7-1.9,3.6-3.3c0.9-1.4,1.3-3,1.3-4.9
		c0-1.8-0.4-3.4-1.3-4.8c-0.9-1.4-2-2.5-3.5-3.2c-1.5-0.8-3.3-1.2-5.2-1.2c-2,0-3.7,0.4-5.2,1.2s-2.7,1.9-3.6,3.2
		c-0.9,1.4-1.3,3-1.3,4.8c0,1.8,0.4,3.5,1.3,4.9c0.9,1.4,2.1,2.5,3.6,3.3C44.3,41.4,46,41.8,48,41.8z"/>
</g>
</svg>
