<?xml version="1.0" encoding="utf-8"?>
<!-- Generator: Adobe Illustrator 26.0.2, SVG Export Plug-In . SVG Version: 6.00 Build 0)  -->
<svg version="1.1" id="Layer_1" xmlns="http://www.w3.org/2000/svg" xmlns:xlink="http://www.w3.org/1999/xlink" x="0px" y="0px"
	 viewBox="0 0 96 96" style="enable-background:new 0 0 96 96;" xml:space="preserve">
<style type="text/css">
	.st0{fill:#FFFFFF;}
</style>
<g>
	<path class="st0" d="M47.1,12.1c3.6,0,7.1,0.6,10.4,1.8s6.3,3.1,8.9,5.8c2.6,2.6,4.7,6.1,6.2,10.5c1.5,4.4,2.3,9.7,2.3,16
		c0,5.9-0.7,11.2-2,15.9s-3.2,8.6-5.7,11.8c-2.5,3.2-5.5,5.7-9,7.4c-3.5,1.7-7.4,2.5-11.7,2.5c-4.7,0-8.8-0.9-12.3-2.7
		c-3.6-1.8-6.4-4.3-8.6-7.4c-2.2-3.1-3.5-6.6-3.9-10.6h14.6c0.6,2.5,1.8,4.5,3.6,5.9c1.8,1.4,4.1,2.1,6.7,2.1c4.5,0,8-2,10.4-5.9
		c2.4-4,3.6-9.4,3.6-16.3h-0.5c-1,2-2.5,3.8-4.2,5.3s-3.8,2.6-6.1,3.4c-2.3,0.8-4.7,1.2-7.3,1.2c-4.1,0-7.8-1-11-2.9
		c-3.2-1.9-5.8-4.6-7.6-8C22,44.5,21,40.7,21,36.3c0-4.7,1.1-8.9,3.2-12.5c2.2-3.7,5.2-6.5,9.2-8.6C37.3,13.1,41.9,12.1,47.1,12.1z
		 M47.2,23.7c-2.3,0-4.3,0.5-6.1,1.6c-1.8,1.1-3.2,2.6-4.2,4.4c-1,1.8-1.5,3.9-1.5,6.2c0,2.3,0.5,4.4,1.5,6.2c1,1.8,2.4,3.3,4.2,4.4
		c1.8,1.1,3.8,1.6,6.1,1.6c1.7,0,3.3-0.3,4.7-1s2.7-1.5,3.8-2.6s1.9-2.4,2.5-3.9c0.6-1.5,0.9-3,0.9-4.7c0-2.2-0.5-4.2-1.6-6.1
		c-1-1.8-2.4-3.3-4.2-4.4C51.5,24.3,49.4,23.7,47.2,23.7z"/>
</g>
</svg>
