<?xml version="1.0" encoding="utf-8"?>
<!-- Generator: Adobe Illustrator 26.0.2, SVG Export Plug-In . SVG Version: 6.00 Build 0)  -->
<svg version="1.1" id="Layer_1" xmlns="http://www.w3.org/2000/svg" xmlns:xlink="http://www.w3.org/1999/xlink" x="0px" y="0px"
	 viewBox="0 0 900 620" style="enable-background:new 0 0 900 620;" xml:space="preserve">
<style type="text/css">
	.st0{fill:#F3D0DD;}
</style>
<g>
	<path class="st0" d="M444.2,251.82c-0.02,0-0.04,0-0.05,0c-8.33,0-15.95,3.84-20.91,10.53c-5.95,8.02-9.72,15.34-12.75,21.23
		c-0.38,0.74-0.74,1.45-1.1,2.13c24.46,8.11,45.2,2.57,52.79-7.33c5.45-7.1,2.28-14.45-1.33-19.36
		C457.58,254.59,451.21,251.83,444.2,251.82z"/>
	<path class="st0" d="M376.78,262.35c-4.96-6.7-12.58-10.53-20.91-10.53c-0.02,0-0.04,0-0.05,0c-7.01,0.01-13.39,2.77-16.64,7.19
		c-3.61,4.91-6.78,12.26-1.33,19.36c7.59,9.9,28.32,15.44,52.79,7.33c-0.36-0.68-0.72-1.39-1.1-2.13
		C386.5,277.69,382.72,270.37,376.78,262.35z"/>
	<path class="st0" d="M606.28,204.89H421.32v24.35c0,3.87-3.13,7-7,7s-7-3.13-7-7v-24.35h-14.64v26.54c0,3.87-3.13,7-7,7
		s-7-3.13-7-7v-26.54H305.5c-6.84,0-12.4,5.56-12.4,12.4v63.88h15.04c3.87,0,7,3.13,7,7s-3.13,7-7,7H293.1v14.64h37.61
		c3.87,0,7,3.13,7,7s-3.13,7-7,7H293.1v79.21c0,6.84,5.56,12.4,12.4,12.4h73.18v-81.27c0-3.87,3.13-7,7-7s7,3.13,7,7v81.27h14.64
		v-81.27c0-3.87,3.13-7,7-7s7,3.13,7,7v81.27h184.95c6.84,0,12.4-5.56,12.4-12.4v-79.21H460.41c-3.87,0-7-3.13-7-7s3.13-7,7-7
		h158.27v-14.64H492.12c-3.87,0-7-3.13-7-7s3.13-7,7-7h126.57v-63.88C618.68,210.45,613.12,204.89,606.28,204.89z M604.86,388.32
		c0,3.87-3.13,7-7,7H467.67c-3.87,0-7-3.13-7-7s3.13-7,7-7h130.18C601.72,381.32,604.86,384.45,604.86,388.32z M473.28,286.89
		c-8.35,10.89-26.04,18.27-47.87,16.39l51.54,49.36c2.79,2.67,2.89,7.11,0.21,9.9c-1.38,1.44-3.21,2.16-5.06,2.16
		c-1.74,0-3.48-0.65-4.84-1.94L400,298.34l-67.26,64.42c-2.79,2.67-7.22,2.58-9.9-0.21c-2.67-2.79-2.58-7.22,0.21-9.9l51.55-49.37
		c-6.13,0.53-12.14,0.35-17.91-0.55c-13.06-2.04-23.7-7.67-29.96-15.84c-8.13-10.61-7.7-24.13,1.16-36.17
		c5.92-8.05,16.34-12.87,27.89-12.9c0.03,0,0.06,0,0.08,0c12.81,0,24.53,5.9,32.16,16.19c5.32,7.17,9.1,13.88,11.98,19.36
		c2.88-5.47,6.66-12.19,11.98-19.36c7.63-10.29,19.35-16.19,32.16-16.19c0.03,0,0.06,0,0.08,0c11.54,0.02,21.97,4.84,27.89,12.9
		C480.97,262.76,481.41,276.29,473.28,286.89z"/>
	<path class="st0" d="M856.17,375.04c-28.48-182.77-168.88-265.97-249.8-294.03s-287.16-60.06-406.94,15.3S19.95,290.6,70.24,442.27
		s222.23,146.69,299.79,96.83s189.21-29.91,269.23,9.43C719.29,587.86,884.65,557.81,856.17,375.04z M632.68,403.03
		c0,14.56-11.84,26.4-26.4,26.4H305.5c-14.56,0-26.4-11.84-26.4-26.4V217.29c0-14.56,11.84-26.4,26.4-26.4h300.78
		c14.56,0,26.4,11.84,26.4,26.4L632.68,403.03L632.68,403.03z"/>
</g>
</svg>
