<?xml version="1.0" encoding="utf-8"?>
<!-- Generator: Adobe Illustrator 26.0.2, SVG Export Plug-In . SVG Version: 6.00 Build 0)  -->
<svg version="1.1" id="Layer_1" xmlns="http://www.w3.org/2000/svg" xmlns:xlink="http://www.w3.org/1999/xlink" x="0px" y="0px"
	 viewBox="0 0 900 620" style="enable-background:new 0 0 900 620;" xml:space="preserve">
<style type="text/css">
	.st0{fillRule:evenodd;clipRule:evenodd;fill:#FACC15;}
</style>
<g>
	<path class="st0" d="M341.3,216.5c1.97-4.64,0.89-8.83-0.36-11.54c-2.71-5.86-8.69-10.6-16.39-13c-3.43-1.07-6.95-1.58-10.36-1.58
		c-10.26,0-19.58,4.55-22.74,12.01c-1.97,4.64-0.89,8.83,0.36,11.54c2.71,5.86,8.69,10.6,16.39,13
		C321.92,231.22,337.08,226.44,341.3,216.5z"/>
	<path class="st0" d="M318.56,287.2c-3.42,0-6.93,0.5-10.36,1.57c-7.71,2.41-13.69,7.15-16.4,13c-1.25,2.7-2.33,6.9-0.36,11.54
		c4.22,9.94,19.38,14.72,33.1,10.43c7.71-2.41,13.68-7.15,16.4-13c1.25-2.7,2.33-6.9,0.36-11.54
		C338.14,291.75,328.81,287.2,318.56,287.2z"/>
	<path class="st0" d="M632.1,149.33c-107.26-30.18-161-85.2-281.15-85.3C230.81,63.93,99.92,168.38,66.44,223.99
		c-33.48,55.61-77.6,187.61,20.61,284.2s221.49,12.96,369.68,35.7c148.19,22.74,396.17,13.97,414.74-141.65
		S739.36,179.5,632.1,149.33z M317.54,430.82c-1.21,0.83-2.58,1.22-3.95,1.22c-2.23,0-4.43-1.07-5.78-3.05
		c-3.59-5.25-5.49-11.34-5.49-17.63v-13.45c0-3.87,3.13-7,7-7s7,3.13,7,7v13.45c0,3.45,1.05,6.82,3.04,9.73
		C321.55,424.28,320.74,428.64,317.54,430.82z M302.33,369.91v-12.89c0-3.87,3.13-7,7-7s7,3.13,7,7v12.89c0,3.87-3.13,7-7,7
		S302.33,373.78,302.33,369.91z M313.94,339.39c-15.75,0-29.92-7.73-35.38-20.6c-3.1-7.3-2.91-15.43,0.54-22.89
		c4.37-9.44,13.46-16.91,24.93-20.49c10.99-3.43,22.26-2.85,31.54,0.89c0.1-0.05,0.19-0.11,0.29-0.16l37.06-18.29l-37.06-18.29
		c-0.1-0.05-0.19-0.11-0.29-0.16c-5.11,2.06-10.82,3.16-16.76,3.16c-4.85,0-9.84-0.73-14.78-2.27
		c-11.47-3.58-20.56-11.05-24.93-20.49c-3.45-7.45-3.64-15.58-0.54-22.89c7.14-16.83,29.18-24.87,50.16-18.33
		c11.47,3.58,20.56,11.05,24.93,20.49c3.45,7.45,3.64,15.58,0.54,22.89c-1.32,3.1-3.15,5.9-5.38,8.37l39.94,19.71l118.44-58.45
		c3.46-1.71,7.66-0.29,9.38,3.18c1.71,3.47,0.29,7.66-3.18,9.38l-108.82,53.7l108.82,53.7c3.47,1.71,4.89,5.91,3.18,9.38
		c-1.22,2.47-3.7,3.9-6.28,3.9c-1.04,0-2.1-0.23-3.09-0.72l-118.44-58.45l-39.93,19.7c2.23,2.47,4.06,5.27,5.37,8.37
		c3.1,7.31,2.91,15.43-0.54,22.89c-4.37,9.44-13.46,16.91-24.93,20.49C323.78,338.65,318.78,339.39,313.94,339.39z M498.7,257.47
		c0,3.87-3.13,7-7,7h-28c-3.87,0-7-3.13-7-7s3.13-7,7-7h28C495.56,250.47,498.7,253.6,498.7,257.47z M365.83,443.32h-28
		c-3.87,0-7-3.13-7-7s3.13-7,7-7h28c3.87,0,7,3.13,7,7S369.7,443.32,365.83,443.32z M421.84,443.32h-28c-3.87,0-7-3.13-7-7
		s3.13-7,7-7h28c3.87,0,7,3.13,7,7S425.7,443.32,421.84,443.32z M477.84,443.32h-28c-3.87,0-7-3.13-7-7s3.13-7,7-7h28
		c3.87,0,7,3.13,7,7S481.7,443.32,477.84,443.32z M533.84,443.32h-28c-3.87,0-7-3.13-7-7s3.13-7,7-7h28c3.87,0,7,3.13,7,7
		S537.7,443.32,533.84,443.32z M547.7,264.47h-28c-3.87,0-7-3.13-7-7s3.13-7,7-7h28c3.87,0,7,3.13,7,7S551.56,264.47,547.7,264.47z
		 M589.84,443.32h-28c-3.87,0-7-3.13-7-7s3.13-7,7-7h28c3.87,0,7,3.13,7,7S593.7,443.32,589.84,443.32z M599.74,266.86
		c-2.82-1.56-6.02-2.39-9.25-2.39h-14.8c-3.87,0-7-3.13-7-7s3.13-7,7-7h14.8c5.6,0,11.15,1.43,16.04,4.15
		c3.38,1.88,4.6,6.14,2.73,9.52c-1.28,2.31-3.67,3.61-6.13,3.61C601.98,267.74,600.82,267.45,599.74,266.86z M623.26,411.36
		c0,5.36-1.41,10.67-4.08,15.37c-1.29,2.27-3.66,3.54-6.09,3.54c-1.17,0-2.36-0.29-3.45-0.92c-3.36-1.91-4.54-6.18-2.63-9.54
		c1.47-2.6,2.25-5.52,2.25-8.45v-15.53c0-3.87,3.13-7,7-7s7,3.13,7,7V411.36z M623.26,367.83c0,3.87-3.13,7-7,7s-7-3.13-7-7v-28
		c0-3.87,3.13-7,7-7s7,3.13,7,7V367.83z M623.26,311.83c0,3.87-3.13,7-7,7s-7-3.13-7-7v-28c0-3.87,3.13-7,7-7s7,3.13,7,7V311.83z"/>
</g>
</svg>
