<?xml version="1.0" encoding="utf-8"?>
<!-- Generator: Adobe Illustrator 26.0.2, SVG Export Plug-In . SVG Version: 6.00 Build 0)  -->
<svg version="1.1" id="Layer_1" xmlns="http://www.w3.org/2000/svg" xmlns:xlink="http://www.w3.org/1999/xlink" x="0px" y="0px"
	 viewBox="0 0 900 620" style="enable-background:new 0 0 900 620;" xml:space="preserve">
<style type="text/css">
	.st0{fill:#A5E1D2;}
</style>
<g>
	<path class="st0" d="M426.6,317H317.31l8.76,141.86c0.39,6.33,5.16,11.29,10.87,11.29h89.67L426.6,317L426.6,317z"/>
	<path class="st0" d="M442.82,212.35c-15.87-32.22-41.72-63.33-71.14-63.33c-4,0-8.06,0.57-12.18,1.8
		c-13.68,4.07-22.2,15.2-20.25,26.46C342.32,195.05,371.44,214.31,442.82,212.35z"/>
	<path class="st0" d="M440.6,306.56c0.57,1.02,0.91,2.19,0.91,3.44s-0.33,2.42-0.91,3.44v156.71h18.79V234.86H440.6V306.56z"/>
	<path class="st0" d="M543.4,179.33c1.11-7.44-4.49-14.55-13.93-17.7c-3.09-1.03-6.55-1.61-10.26-1.61
		c-15.86,0-36.36,10.57-53.1,41.49c-0.68,1.29-2.1,6.22-3.16,10.02c25.52-1.4,46.35-5.65,60.63-12.41
		C535.29,193.6,542.32,186.57,543.4,179.33z"/>
	<path class="st0" d="M426.6,303v-68.14H301.22c-3.07,0-6.17,1.34-8.28,3.6c-1.82,1.94-2.74,4.36-2.58,6.81l2.98,46.44
		c0.41,6.44,5.08,11.3,10.87,11.3L426.6,303L426.6,303z"/>
	<path class="st0" d="M582.75,317H473.4v153.15h92.65c5.77,0,10.44-4.84,10.86-11.27L582.75,317z"/>
	<path class="st0" d="M598.78,234.86H473.4V303h122.4c5.78,0,10.45-4.86,10.86-11.3l2.98-46.44c0.16-2.45-0.76-4.86-2.58-6.81
		C604.95,236.2,601.85,234.86,598.78,234.86z"/>
	<path class="st0" d="M853.16,223.64c-61.44-104.53-174.1-52.41-299.96-123.46C427.33,29.12,277.15,16.92,187.84,58.21
		S-14.35,189.13,41.47,394.14c55.82,205.02,314.18,216.8,555.45,165.82C838.19,508.99,914.6,328.16,853.16,223.64z M623.61,246.15
		l-2.98,46.44c-0.87,13.58-11.05,23.89-23.88,24.38l-5.87,142.61c0,0.03-0.01,0.05-0.01,0.08s0,0.05,0,0.08
		c-0.87,13.69-11.78,24.41-24.84,24.41h-229.1c-13.09,0-24-10.73-24.84-24.42l-8.81-142.75c-12.84-0.47-23.05-10.79-23.92-24.38
		l-2.98-46.44c-0.4-6.35,1.85-12.49,6.35-17.28c4.78-5.09,11.52-8.02,18.49-8.02h76.83c-6.55-1.59-12.59-3.51-18.08-5.77
		c-19.72-8.12-31.98-20.7-34.52-35.42c-3.17-18.36,9.47-36.14,30.06-42.27c16.65-4.95,35.31-1.5,52.54,9.74
		c16.72,10.9,31.46,28.42,43.93,52.19c0.63-1.89,1.23-3.39,1.82-4.48c24.78-45.77,58.64-53.65,80.1-46.49
		c15.85,5.29,25.45,18.88,23.34,33.04c-1.79,12-11.61,22.79-27.67,30.39c-7.96,3.76-17.39,6.79-28.21,9.07h97.4
		c6.97,0,13.71,2.92,18.49,8.02C621.77,233.67,624.02,239.8,623.61,246.15z"/>
</g>
</svg>
