<?xml version="1.0" encoding="utf-8"?>
<!-- Generator: Adobe Illustrator 26.0.2, SVG Export Plug-In . SVG Version: 6.00 Build 0)  -->
<svg version="1.1" id="Layer_1" xmlns="http://www.w3.org/2000/svg" xmlns:xlink="http://www.w3.org/1999/xlink" x="0px" y="0px"
	 viewBox="0 0 100 100" style="enable-background:new 0 0 100 100;" xml:space="preserve">
<style type="text/css">
	.st0{fill:#23A566;}
	.st1{fill:#1C8F5A;}
	.st2{fill:#8ED1B1;}
	.st3{fillRule:evenodd;clipRule:evenodd;fill:#FFFFFF;}
</style>
<g>
	<path className="st0" d="M76.8,82.99c0,2.38-1.93,4.31-4.31,4.31H27.51c-2.38,0-4.31-1.93-4.31-4.31V17.03c0-2.38,1.93-4.31,4.31-4.31
		h28.92L76.8,33.58V82.99L76.8,82.99z"/>
	<path className="st1" d="M58.68,33.05L76.8,50.37l-0.05-16.81l-0.03,0H60.71c-0.73,0-1.42-0.18-2.02-0.5L58.68,33.05L58.68,33.05z"/>
	<path className="st2" d="M76.8,33.55H60.71c-2.38,0-4.31-1.93-4.31-4.31V12.7L76.8,33.55L76.8,33.55z"/>
	<path className="st3" d="M63.94,73.5H36.06V49.36h27.88V73.5L63.94,73.5z M51.72,52.81v4.31h8.77v-4.31H51.72L51.72,52.81z
		 M51.72,59.71v4.02h8.77v-4.02H51.72L51.72,59.71z M51.72,66.32v3.74h8.77v-3.74H51.72L51.72,66.32z M48.28,70.06v-3.74h-8.77v3.74
		H48.28L48.28,70.06z M48.28,63.73v-4.02h-8.77v4.02H48.28L48.28,63.73z M48.28,57.12v-4.31h-8.77v4.31H48.28L48.28,57.12z"/>
</g>
</svg>
