<?xml version="1.0" encoding="utf-8"?>
<!-- Generator: Adobe Illustrator 26.0.2, SVG Export Plug-In . SVG Version: 6.00 Build 0)  -->
<svg version="1.1" id="Layer_1" xmlns="http://www.w3.org/2000/svg" xmlns:xlink="http://www.w3.org/1999/xlink" x="0px" y="0px"
	 viewBox="0 0 100 100" style="enable-background:new 0 0 100 100;" xml:space="preserve">
<style type="text/css">
	.st0{fill:url(#SVGID_1_);}
</style>
<linearGradient id="SVGID_1_" gradientUnits="userSpaceOnUse" x1="217.8207" y1="594.0106" x2="217.8207" y2="505.7614" gradientTransform="matrix(0.7071 0 0 0.7071 -104.021 -338.8244)">
	<stop  offset="0" style="stop-color:#EFC119"/>
	<stop  offset="0.3314" style="stop-color:#92C84E"/>
	<stop  offset="0.4859" style="stop-color:#71BF5B"/>
	<stop  offset="0.7506" style="stop-color:#15B158"/>
	<stop  offset="0.903" style="stop-color:#23AC69"/>
	<stop  offset="1" style="stop-color:#23AC69"/>
</linearGradient>
<path className="st0" d="M5.62,47.05L47.1,19.58c1.81-1.04,4.02-1.04,5.83,0L94.4,47.05c1.63,0.81,2.35,2.76,1.54,4.43
	c-0.32,0.68-0.86,1.22-1.54,1.54l-5.56,3.66c-13.6-21.46-41.97-27.83-63.43-14.28c-5.74,3.66-10.62,8.49-14.28,14.28l-5.6-3.66
	c-1.63-0.86-2.26-2.85-1.45-4.47C4.45,47.9,4.99,47.36,5.62,47.05z M49.94,46.73c-11.88,0.05-22.95,6.14-29.27,16.22l9.53,6.32
	c6.55-10.89,20.69-14.37,31.53-7.82c3.21,1.94,5.87,4.61,7.82,7.82l9.53-6.32C72.85,52.83,61.82,46.69,49.94,46.73z M49.94,69.68
	c-4.2,0.05-8.04,2.3-10.12,5.96l6.42,4.2c1.04,0.9,2.35,1.36,3.7,1.36c1.36,0,2.71-0.5,3.7-1.36l6.42-4.2
	C58.03,71.94,54.14,69.68,49.94,69.68z"/>
</svg>
