<?xml version="1.0" encoding="utf-8"?>
<!-- Generator: Adobe Illustrator 26.0.2, SVG Export Plug-In . SVG Version: 6.00 Build 0)  -->
<svg version="1.1" id="Layer_1" xmlns="http://www.w3.org/2000/svg" xmlns:xlink="http://www.w3.org/1999/xlink" x="0px" y="0px"
	 viewBox="0 0 100 100" style="enable-background:new 0 0 100 100;" xml:space="preserve">
<style type="text/css">
	.st0{fill:#F05353;}
	.st1{fill:#FFFFFF;}
</style>
<g>
	<path class="st0" d="M51.26,4.78h-2.51c-10.76,6.46-21.53,12.92-32.3,19.38c-1.79,1.08-3.59,2.39-5.26,3.71v44.26
		c10.17,6.22,20.46,12.44,30.62,18.66c2.39,1.44,4.66,2.99,6.94,4.43h2.51c12.56-7.54,25.24-15.07,37.56-22.37V27.15L51.26,4.78z"/>
	<path class="st1" d="M78.89,46.41V32.89c-8.73-5.02-17.82-10.53-27.27-15.55c-1.31-0.72-3.95,0.24-5.5,1.2
		c-6.82,3.71-13.52,7.66-20.1,11.72c-6.94,4.19-6.94,9.57,0,13.64c4.07,2.39,8.14,4.79,12.2,7.06c0,0,11.48,6.7,17.1,9.93
		c1.32,0.72,2.39,1.79,4.07,3.11c-3.47,2.15-6.34,3.83-9.57,5.86c-9.69-5.62-18.9-10.89-28.83-16.63v13.52
		c8.73,5.02,17.82,10.53,27.27,15.55c1.32,0.72,3.95-0.24,5.5-1.2c6.82-3.71,13.52-7.66,20.1-11.72c6.94-4.18,6.94-9.57,0-13.63
		c-4.07-2.39-12.32-7.06-12.32-7.06c-5.62-3.35-11.24-6.7-16.87-9.93c-1.31-0.72-2.39-1.79-4.07-3.11c3.47-2.15,6.34-3.83,9.57-5.86
		C59.63,35.29,68.84,40.67,78.89,46.41"/>
</g>
</svg>
