<?xml version="1.0" encoding="utf-8"?>
<!-- Generator: Adobe Illustrator 26.0.2, SVG Export Plug-In . SVG Version: 6.00 Build 0)  -->
<svg version="1.1" id="Layer_1" xmlns="http://www.w3.org/2000/svg" xmlns:xlink="http://www.w3.org/1999/xlink" x="0px" y="0px"
	 viewBox="0 0 100 100" style="enable-background:new 0 0 100 100;" xml:space="preserve">
<style type="text/css">
	.st0{fill:#2470AF;}
</style>
<path className="st0" d="M87.92,28.64L87.92,28.64l-0.01-0.03c-0.09-0.15-0.18-0.29-0.28-0.43c-0.03-0.04-0.05-0.08-0.08-0.1
	c-0.08-0.1-0.16-0.2-0.25-0.3c-0.05-0.05-0.1-0.11-0.15-0.16c-0.08-0.08-0.14-0.14-0.21-0.21c-0.2-0.19-0.43-0.37-0.66-0.53
	c-0.06-0.04-0.13-0.09-0.19-0.13c-0.09-0.05-0.18-0.11-0.28-0.16c-0.16-0.09-0.33-0.18-0.49-0.24c-0.06-0.03-0.14-0.06-0.2-0.09
	c-0.1-0.04-0.21-0.08-0.33-0.11c-0.06-0.03-0.13-0.04-0.19-0.06c-0.13-0.04-0.25-0.06-0.38-0.1c-0.05-0.01-0.09-0.03-0.14-0.03
	c-0.16-0.03-0.32-0.05-0.48-0.08c-0.01,0-0.04,0-0.05,0c-1.19-0.13-2.38,0.13-3.43,0.71L50,43.57L28.47,31.43l21.56-12.15
	l14.37,8.09c2.74,1.54,6.23,0.63,7.8-2.04s0.64-6.08-2.09-7.61L52.89,8c-1.78-1-3.93-1-5.71,0L14.32,26.52
	c-0.92,0.48-1.7,1.21-2.23,2.12c-1.58,2.67-0.64,6.08,2.09,7.61l32.97,18.58c0,0,0.01,0,0.01,0.01c0.18,0.1,0.35,0.18,0.53,0.25
	c0.05,0.03,0.1,0.05,0.15,0.08c0.11,0.04,0.23,0.08,0.33,0.11c0.59,0.2,1.21,0.3,1.82,0.3H50c0.62,0,1.25-0.11,1.85-0.32
	c0.1-0.04,0.2-0.06,0.29-0.1c0.06-0.03,0.11-0.05,0.16-0.08c0.18-0.08,0.35-0.15,0.52-0.25h0.01l24.41-13.77v24.29L50.01,80.74
	L22.76,65.38V50.01c0-3.08-2.56-5.57-5.71-5.57s-5.71,2.5-5.71,5.57v18.58c0,1.99,1.08,3.83,2.85,4.83L47.15,92
	c0.87,0.49,1.85,0.74,2.85,0.74c0.98,0,1.97-0.25,2.86-0.74l32.97-18.58c1.76-1,2.85-2.84,2.85-4.83V31.43
	C88.69,30.4,88.4,29.46,87.92,28.64"/>
</svg>
