<?xml version="1.0" encoding="utf-8"?>
<!-- Generator: Adobe Illustrator 26.0.2, SVG Export Plug-In . SVG Version: 6.00 Build 0)  -->
<svg version="1.1" id="Layer_1" xmlns="http://www.w3.org/2000/svg" xmlns:xlink="http://www.w3.org/1999/xlink" x="0px" y="0px"
	 viewBox="0 0 2999.2 473.11" style="enable-background:new 0 0 2999.2 473.11;" xml:space="preserve">
<style type="text/css">
	.st0{fill:none;}
	.st1{enable-background:new    ;}
	.st2{fill:#FFFFFF;}
</style>
<rect x="537.84" y="103.14" class="st0" width="2657.83" height="266.83"/>
<g class="st1">
	<path class="st2" d="M781.61,193.92h-71.74c-7.48-12.58-21.08-19.72-39.44-19.72c-33.66,0-54.06,23.46-54.06,60.18
		c0,41.14,21.08,63.24,60.52,63.24c23.12,0,40.12-10.88,49.98-31.62h-66.98v-47.94h124.44v64.6
		c-14.28,35.02-51.34,73.78-113.9,73.78c-73.44,0-121.72-50.32-121.72-122.06c0-71.4,47.94-121.72,121.38-121.72
		C730.61,112.66,772.09,143.94,781.61,193.92z"/>
	<path class="st2" d="M967.59,168.42h-86.7v39.1h76.5v50.66h-76.5v43.18h86.7v53.38H814.25v-239.7h153.34V168.42z"/>
	<path class="st2" d="M987.31,115.04h193.8v53.04h-63.92v186.66h-66.64V168.08h-63.24V115.04z"/>
	<path class="st2" d="M1310.98,115.04c59.5,0,89.42,34,89.42,76.84c0,31.28-17,58.48-52.7,69.36l54.06,93.5h-74.46l-47.6-88.4h-7.14
		v88.4h-66.64v-239.7H1310.98z M1305.54,170.8h-32.98v49.98h32.98c18.02,0,27.2-8.84,27.2-25.16
		C1332.74,180.66,1323.56,170.8,1305.54,170.8z"/>
	<path class="st2" d="M1584,168.42h-86.7v39.1h76.5v50.66h-76.5v43.18h86.7v53.38h-153.34v-239.7H1584V168.42z"/>
	<path class="st2" d="M1779.16,115.04h71.06l-82.62,239.7h-85.34l-82.96-239.7h71.4l54.4,173.06L1779.16,115.04z"/>
	<path class="st2" d="M1870.96,115.04h66.64v239.7h-66.64V115.04z"/>
	<path class="st2" d="M2129.01,168.42h-86.7v39.1h76.5v50.66h-76.5v43.18h86.7v53.38h-153.34v-239.7h153.34V168.42z"/>
	<path class="st2" d="M2152.13,115.04h72.08l27.88,163.88l37.74-163.88h73.1l36.72,162.52l27.88-162.52h72.08l-58.82,239.7h-81.94
		l-32.98-146.88l-33.66,146.88h-81.94L2152.13,115.04z"/>
	<path class="st2" d="M2618.27,357.11c-53.38,0-94.86-25.5-97.58-76.84h71.06c1.36,18.02,11.9,24.14,24.14,24.14
		c11.9,0,21.08-6.12,21.08-17.34c-0.34-38.42-116.62-20.4-115.6-103.7c0-46.92,39.1-72.08,89.76-72.08
		c55.08,0,91.12,26.86,93.5,74.46h-72.42c-0.68-14.96-9.86-21.76-22.1-21.76c-9.86-0.34-17.68,5.44-17.68,17
		c0,35.7,115.26,24.14,115.26,100.98C2707.69,324.13,2675.05,357.11,2618.27,357.11z"/>
</g>
<g class="st1">
	<path class="st2" d="M2737.61,355.75c-5.95,0-10.54-4.59-10.54-10.54c0-5.95,4.59-10.54,10.54-10.54c5.61,0,10.2,4.59,10.2,10.54
		C2747.8,351.16,2743.21,355.75,2737.61,355.75z"/>
	<path class="st2" d="M2806.79,260.04c17.34,0,29.24,8.84,34.68,18.53v-17h15.64v93.16h-15.64v-17.34
		c-5.61,10.03-17.68,18.87-34.85,18.87c-24.82,0-44.03-19.55-44.03-48.45C2762.59,278.75,2781.8,260.04,2806.79,260.04z
		 M2809.85,273.48c-17,0-31.45,12.41-31.45,34.34c0,21.93,14.45,34.85,31.45,34.85s31.62-12.75,31.62-34.68
		C2841.47,286.4,2826.85,273.48,2809.85,273.48z"/>
	<path class="st2" d="M2880.74,235.91c0-5.95,4.59-10.54,10.54-10.54c5.61,0,10.2,4.59,10.2,10.54c0,5.95-4.59,10.54-10.2,10.54
		C2885.33,246.45,2880.74,241.86,2880.74,235.91z M2883.29,261.58h15.47v93.16h-15.47V261.58z"/>
</g>
<path class="st2" d="M469,195.06c-9.18-54.53-35.11-100.41-76.93-136.31C332.17,7.33,262.66-10.51,185.41,5.91
	C80.9,28.13,0.94,120.64,0,235.51c-0.63,77.14-0.08,154.29-0.22,231.43c-0.01,4.84,1.36,6.17,6.17,6.15
	c39.32-0.18,78.64-0.1,117.97-0.1c36.99,0,73.98,0.35,110.97-0.18c14.41-0.21,28.95-1.41,43.14-3.87
	c55.02-9.55,101.23-35.68,137.33-78.09C463.57,334.21,481.35,268.44,469,195.06z M321.33,367.47l-85.09-44.74l-85.08,44.74
	l16.25-94.77l-68.83-67.06l95.12-13.78l42.54-86.22l42.55,86.22l95.12,13.78l-68.83,67.06L321.33,367.47z"/>
</svg>
