<?xml version="1.0" encoding="utf-8"?>
<!-- Generator: Adobe Illustrator 26.0.2, SVG Export Plug-In . SVG Version: 6.00 Build 0)  -->
<svg version="1.1" id="Layer_1" xmlns="http://www.w3.org/2000/svg" xmlns:xlink="http://www.w3.org/1999/xlink" x="0px" y="0px"
	 viewBox="0 0 2999.2 473.11" style="enable-background:new 0 0 2999.2 473.11;" xml:space="preserve">
<style type="text/css">
	.st0{fill:none;}
	.st1{fill:#FFFFFF;}
	.st2{font-family:'Poppins-ExtraBold';}
	.st3{font-size:340px;}
	.st4{font-family:'Poppins-Regular';}
	.st5{font-size:170px;}
</style>
<rect x="537.84" y="103.14" class="st0" width="2657.83" height="266.83"/>
<text transform="matrix(1 0 0 1 537.835 354.7345)"><tspan x="0" y="0" class="st1 st2 st3">GETREVIEWS</tspan><tspan x="2181.75" y="0" class="st1 st4 st5">.ai</tspan></text>
<path class="st1" d="M469,195.06c-9.18-54.53-35.11-100.41-76.93-136.31C332.17,7.33,262.66-10.51,185.41,5.91
	C80.9,28.13,0.94,120.64,0,235.51c-0.63,77.14-0.08,154.29-0.22,231.43c-0.01,4.84,1.36,6.17,6.17,6.15
	c39.32-0.18,78.64-0.1,117.97-0.1c36.99,0,73.98,0.35,110.97-0.18c14.41-0.21,28.95-1.41,43.14-3.87
	c55.02-9.55,101.23-35.68,137.33-78.09C463.57,334.21,481.35,268.44,469,195.06z M321.33,367.47l-85.09-44.74l-85.08,44.74
	l16.25-94.77l-68.83-67.06l95.12-13.78l42.54-86.22l42.55,86.22l95.12,13.78l-68.83,67.06L321.33,367.47z"/>
</svg>
