<?xml version="1.0" encoding="utf-8"?>
<!-- Generator: Adobe Illustrator 26.0.2, SVG Export Plug-In . SVG Version: 6.00 Build 0)  -->
<svg version="1.1" id="Layer_1" xmlns="http://www.w3.org/2000/svg" xmlns:xlink="http://www.w3.org/1999/xlink" x="0px" y="0px"
	 viewBox="0 0 100 100" style="enable-background:new 0 0 100 100;" xml:space="preserve">
<style type="text/css">
	.st0{fillRule:evenodd;clipRule:evenodd;fill:#231F20;}
</style>
<g>
	<path className="st0" d="M71.39,47.53c0.66-0.08,1.29-0.08,1.87,0c0.34-0.77,0.39-2.09,0.09-3.53c-0.45-2.14-1.05-3.44-2.3-3.24
		s-1.3,1.75-0.85,3.9C70.44,45.86,70.89,46.89,71.39,47.53"/>
	<path className="st0" d="M60.64,49.22c0.9,0.39,1.45,0.65,1.66,0.43c0.14-0.14,0.1-0.41-0.12-0.76c-0.44-0.72-1.35-1.45-2.32-1.86
		c-1.97-0.85-4.32-0.57-6.14,0.74c-0.6,0.44-1.17,1.05-1.09,1.42c0.03,0.12,0.12,0.21,0.33,0.24c0.49,0.06,2.22-0.82,4.21-0.94
		C58.58,48.39,59.75,48.83,60.64,49.22"/>
	<path className="st0" d="M58.84,50.25c-1.17,0.18-1.81,0.57-2.22,0.93c-0.35,0.31-0.57,0.65-0.57,0.89c0,0.11,0.05,0.18,0.09,0.21
		c0.05,0.05,0.12,0.07,0.19,0.07c0.26,0,0.85-0.24,0.85-0.24c1.62-0.58,2.69-0.51,3.76-0.39c0.59,0.07,0.86,0.1,0.99-0.1
		c0.04-0.06,0.08-0.18-0.03-0.37C61.63,50.81,60.45,50.06,58.84,50.25"/>
	<path className="st0" d="M67.76,54.02c0.79,0.39,1.66,0.24,1.95-0.34s-0.13-1.36-0.92-1.75s-1.66-0.24-1.95,0.34
		C66.56,52.85,66.97,53.64,67.76,54.02"/>
	<path className="st0" d="M72.85,49.58c-0.64-0.01-1.18,0.7-1.19,1.58s0.49,1.61,1.14,1.62s1.18-0.7,1.19-1.58
		C74,50.31,73.49,49.59,72.85,49.58"/>
	<path className="st0" d="M29.64,65.48c-0.16-0.2-0.42-0.14-0.68-0.08c-0.18,0.04-0.38,0.09-0.6,0.09c-0.47-0.01-0.87-0.21-1.1-0.56
		c-0.29-0.45-0.28-1.12,0.05-1.89l0.15-0.34c0.52-1.16,1.38-3.1,0.41-4.94c-0.73-1.39-1.92-2.26-3.35-2.44
		c-1.37-0.17-2.79,0.34-3.69,1.33c-1.42,1.57-1.65,3.71-1.37,4.46c0.1,0.28,0.26,0.35,0.37,0.37c0.24,0.03,0.6-0.14,0.82-0.75
		l0.06-0.2c0.1-0.32,0.29-0.91,0.59-1.39c0.37-0.57,0.94-0.97,1.61-1.11c0.68-0.15,1.38-0.02,1.97,0.37c1,0.65,1.38,1.87,0.96,3.04
		c-0.22,0.6-0.58,1.76-0.5,2.7c0.16,1.92,1.34,2.69,2.4,2.77c1.03,0.04,1.75-0.54,1.93-0.96C29.78,65.7,29.69,65.55,29.64,65.48"/>
	<path className="st0" d="M39.43,30.27c3.36-3.88,7.49-7.26,11.2-9.15c0.13-0.07,0.26,0.07,0.2,0.2c-0.29,0.53-0.86,1.67-1.04,2.54
		c-0.03,0.13,0.12,0.24,0.23,0.16c2.3-1.57,6.31-3.26,9.83-3.47c0.15-0.01,0.22,0.18,0.1,0.28c-0.54,0.41-1.12,0.98-1.55,1.55
		c-0.07,0.1,0,0.24,0.12,0.24c2.47,0.02,5.95,0.88,8.22,2.15c0.15,0.09,0.04,0.38-0.13,0.34c-3.43-0.79-9.05-1.38-14.89,0.04
		c-5.21,1.27-9.19,3.23-12.09,5.34C39.49,30.61,39.31,30.41,39.43,30.27L39.43,30.27z M56.16,67.89L56.16,67.89L56.16,67.89
		L56.16,67.89z M70.02,69.52c0.1-0.04,0.17-0.15,0.16-0.27c-0.01-0.14-0.14-0.24-0.28-0.23c0,0-7.17,1.06-13.94-1.42
		c0.74-2.4,2.7-1.53,5.66-1.29c5.34,0.32,10.13-0.46,13.67-1.48c3.07-0.88,7.1-2.62,10.23-5.09c1.05,2.32,1.43,4.87,1.43,4.87
		s0.82-0.15,1.5,0.27c0.65,0.4,1.12,1.22,0.79,3.36c-0.66,3.99-2.35,7.22-5.2,10.2c-1.73,1.87-3.84,3.49-6.25,4.67
		c-1.28,0.67-2.64,1.25-4.08,1.72c-10.74,3.51-21.73-0.35-25.27-8.63c-0.28-0.62-0.52-1.27-0.71-1.96c-1.51-5.46-0.23-12,3.78-16.12
		v0c0.25-0.26,0.5-0.57,0.5-0.96c0-0.32-0.21-0.67-0.39-0.91c-1.4-2.03-6.26-5.5-5.28-12.2c0.7-4.82,4.91-8.21,8.84-8.01l0.99,0.06
		c1.7,0.1,3.19,0.32,4.59,0.38c2.35,0.1,4.45-0.24,6.95-2.32c0.84-0.7,1.52-1.31,2.66-1.5c0.12-0.02,0.42-0.13,1.02-0.1
		c0.61,0.03,1.19,0.2,1.71,0.55c2,1.33,2.29,4.56,2.39,6.92c0.06,1.35,0.22,4.61,0.28,5.54c0.13,2.14,0.69,2.44,1.83,2.82
		c0.64,0.21,1.23,0.37,2.11,0.61c2.65,0.74,4.22,1.5,5.21,2.47c0.59,0.61,0.87,1.25,0.95,1.86c0.31,2.28-1.77,5.1-7.28,7.65
		c-6.03,2.8-13.34,3.51-18.39,2.94l-1.77-0.2c-4.04-0.54-6.35,4.68-3.92,8.26c1.56,2.31,5.82,3.81,10.08,3.81
		c9.76,0,17.27-4.17,20.06-7.77l0.22-0.32c0.14-0.21,0.02-0.32-0.15-0.2c-2.28,1.56-12.41,7.76-23.25,5.89c0,0-1.32-0.22-2.52-0.68
		c-0.96-0.37-2.96-1.29-3.2-3.34C64.51,72.08,70.02,69.52,70.02,69.52L70.02,69.52z M21.98,48.74c-3.04,0.59-5.72,2.32-7.36,4.7
		c-0.98-0.82-2.81-2.4-3.13-3.02c-2.62-4.97,2.86-14.63,6.68-20.09c9.45-13.49,24.25-23.69,31.1-21.84c1.11,0.32,4.8,4.59,4.8,4.59
		s-6.85,3.8-13.2,9.1C32.31,28.77,25.85,38.34,21.98,48.74L21.98,48.74z M27.09,71.54c-0.46,0.08-0.93,0.11-1.4,0.1
		c-4.58-0.12-9.52-4.24-10.01-9.13c-0.54-5.4,2.22-9.56,7.1-10.54c0.58-0.12,1.29-0.19,2.05-0.15c2.74,0.15,6.77,2.25,7.69,8.22
		C33.34,65.32,32.04,70.7,27.09,71.54L27.09,71.54z M89.08,61.98c-0.04-0.14-0.29-1.07-0.65-2.2c-0.35-1.13-0.71-1.92-0.71-1.92
		c1.41-2.11,1.43-3.99,1.24-5.06c-0.2-1.32-0.75-2.45-1.86-3.62c-1.11-1.16-3.38-2.36-6.57-3.26l-1.67-0.46
		c-0.01-0.07-0.09-3.95-0.16-5.61c-0.05-1.2-0.16-3.08-0.74-4.93c-0.7-2.51-1.9-4.7-3.42-6.1c4.17-4.32,6.77-9.08,6.77-13.17
		C81.3,7.8,71.65,5.42,59.76,10.35l-2.52,1.07c-0.01-0.01-4.55-4.47-4.62-4.53C39.07-4.93-3.31,42.17,10.24,53.61l2.96,2.51
		c-0.77,1.99-1.07,4.27-0.82,6.72c0.32,3.15,1.94,6.17,4.57,8.5c2.5,2.21,5.79,3.62,8.97,3.61c5.27,12.15,17.32,19.6,31.45,20.02
		c15.15,0.45,27.87-6.66,33.2-19.43c0.35-0.9,1.83-4.93,1.83-8.5C92.4,63.46,90.37,61.98,89.08,61.98"/>
</g>
</svg>
