<?xml version="1.0" encoding="utf-8"?>
<!-- Generator: Adobe Illustrator 26.0.2, SVG Export Plug-In . SVG Version: 6.00 Build 0)  -->
<svg version="1.1" id="Layer_1" xmlns="http://www.w3.org/2000/svg" xmlns:xlink="http://www.w3.org/1999/xlink" x="0px" y="0px"
	 viewBox="0 0 100 100" style="enable-background:new 0 0 100 100;" xml:space="preserve">
<style type="text/css">
	.st0{fill:#008FDE;}
	.st1{fill:#FF7300;}
</style>
<g>
	<path className="st0" d="M50,11.56l-0.84,0.19L9.85,20.86l-2.87,0.67v2.95v49.12v2.85l2.76,0.73l41.4,10.97l1.13,0.3l1.1-0.41
		l37.22-13.75l2.42-0.89v-2.58V24.48v-2.95l-2.87-0.67l-39.31-9.11L50,11.56z M50,15.36l39.31,9.11v46.34L52.08,84.56l-41.4-10.97
		V24.48L50,15.36z"/>
	<polygon className="st1" points="14.4,27.18 14.4,65.17 45.29,38.14 20.42,28.72 52.24,34.28 51.47,72.9 47.91,42.16 16.87,70.27 
		51.16,79.08 84.68,67.18 84.68,28.26 55.64,34.28 78.5,25.63 50,18.84 	"/>
</g>
</svg>
