<?xml version="1.0" encoding="utf-8"?>
<!-- Generator: Adobe Illustrator 26.0.2, SVG Export Plug-In . SVG Version: 6.00 Build 0)  -->
<svg version="1.1" id="Layer_1" xmlns="http://www.w3.org/2000/svg" xmlns:xlink="http://www.w3.org/1999/xlink" x="0px" y="0px"
	 viewBox="0 0 1015 1015" style="enable-background:new 0 0 1015 1015;" xml:space="preserve">
<style type="text/css">
	.st0{fill:#FFFFFF;}
</style>
<g>
	<rect x="595" class="st0" width="35" height="35"/>
	<polygon class="st0" points="455,70 455,105 490,105 490,140 525,140 525,175 560,175 560,140 560,105 525,105 525,70 560,70 
		560,35 560,0 525,0 490,0 455,0 420,0 420,35 455,35 	"/>
	<polygon class="st0" points="315,70 315,35 350,35 350,0 315,0 280,0 280,35 280,70 280,105 315,105 	"/>
	<rect x="595" y="105" class="st0" width="35" height="35"/>
	<polygon class="st0" points="350,175 350,140 315,140 280,140 280,175 315,175 	"/>
	<rect x="280" y="210" class="st0" width="35" height="35"/>
	<rect x="560" y="210" class="st0" width="35" height="35"/>
	<polygon class="st0" points="630,245 665,245 665,210 665,175 700,175 700,140 735,140 735,105 700,105 700,70 700,35 665,35 
		665,70 630,70 630,105 665,105 665,140 630,140 630,175 595,175 595,210 630,210 	"/>
	<rect y="280" class="st0" width="35" height="35"/>
	<polygon class="st0" points="945,280 910,280 910,315 910,350 910,385 945,385 945,350 980,350 980,315 1015,315 1015,280 980,280 
			"/>
	<rect x="35" y="315" class="st0" width="35" height="35"/>
	<polygon class="st0" points="840,350 875,350 875,315 875,280 840,280 840,315 805,315 805,350 805,385 840,385 	"/>
	<rect x="350" y="385" class="st0" width="35" height="35"/>
	<rect x="595" y="385" class="st0" width="35" height="35"/>
	<rect x="875" y="385" class="st0" width="35" height="35"/>
	<polygon class="st0" points="980,420 980,455 945,455 910,455 875,455 840,455 840,490 875,490 910,490 910,525 910,560 945,560 
		945,525 945,490 980,490 980,525 980,560 1015,560 1015,525 1015,490 1015,455 1015,420 1015,385 980,385 	"/>
	<rect x="210" y="420" class="st0" width="35" height="35"/>
	<rect x="560" y="420" class="st0" width="35" height="35"/>
	<rect x="665" y="420" class="st0" width="35" height="35"/>
	<polygon class="st0" points="595,455 595,490 595,525 630,525 630,490 665,490 665,455 630,455 	"/>
	<polygon class="st0" points="735,455 735,490 770,490 770,525 735,525 735,560 770,560 805,560 840,560 875,560 875,525 840,525 
		840,490 805,490 805,455 840,455 840,420 805,420 770,420 770,455 	"/>
	<polygon class="st0" points="700,525 735,525 735,490 700,490 665,490 665,525 	"/>
	<rect x="630" y="525" class="st0" width="35" height="35"/>
	<rect x="875" y="560" class="st0" width="35" height="35"/>
	<polygon class="st0" points="140,630 175,630 175,595 175,560 140,560 140,595 	"/>
	<rect x="840" y="595" class="st0" width="35" height="35"/>
	<polygon class="st0" points="945,630 980,630 980,595 945,595 910,595 910,630 	"/>
	<rect x="210" y="630" class="st0" width="35" height="35"/>
	<path class="st0" d="M875,665h-35h-35v35h-35h-35h-35v35v35h-35v35v35h-35v35h-35v-35h-35v35h-35h-35v-35v-35v-35v-35v-35v-35h35
		h35v-35h35h35v35h35h35h35h35h35v-35h-35v-35h-35h-35h-35h-35h-35h-35h-35v35h-35h-35v-35v-35h35h35h35v-35v-35h-35h-35v35h-35h-35
		h-35h-35v35v35h-35v35h35v35h-35v-35h-35v35h-35v35h35h35v35h-35v35v35v35v35v35h35v-35h35h35v-35h35v-35v-35h-35v35h-35v35h-35
		v-35v-35h35v-35h35h35v35h35v35v35h-35v35h35v35h35h35v35h-35v35v35h35h35v-35h35v-35h-35v-35h35v35h35v-35h35v35h-35v35h35v35h35
		h35v-35h-35v-35v-35v-35h35v35v35v35h35h35h35v-35h35v-35h-35v-35h35h35v-35h-35v-35h35v-35v-35h35h35v-35h-35v-35h-35v-35h-35V665
		z M385,630v-35h35v35v35h-35V630z M805,910v35h-35v-35v-35h35V910z M840,840h-35h-35h-35v-35v-35v-35h35h35h35v35v35V840z"/>
	<rect x="980" y="630" class="st0" width="35" height="35"/>
	<path class="st0" d="M175,665h-35h-35v-35v-35H70H35v-35h35v-35H35v-35h35v35h35v35h35v-35v-35h-35v-35h35v-35h35h35v-35h35h35v35
		v35v35h-35h-35v-35h-35v35v35h35h35v35h-35v35h35h35h35v-35h-35v-35h35v-35h35v-35v-35h-35v-35h35v-35h-35h-35v-35h35h35h35v-35h35
		v35h-35v35h35v35v35h35v-35v-35v-35h35v35v35v35h-35v35h35h35v-35h35v-35h-35v-35v-35h35h35v35h35h35h35v-35h35v35h-35v35v35h35h35
		v-35v-35v-35v-35h-35v-35v-35h-35v35v35h-35v35h-35v-35h-35h-35h-35v-35v-35v-35h-35v-35h-35h-35v-35V70V35h-35v35h-35v35h35v35v35
		h35h35v35h35v35v35h-35v-35v-35h-35v35h-35v-35h-35v35h-35v35h-35h-35h-35h-35h-35h-35v35v35H70v35v35v35H35v-35H0v35v35v35v35v35
		v35v35v35v35h35h35h35v-35h35v35h35v-35h35v-35H175z M245,315v35h-35v-35H245z M140,315h35v35h-35V315z"/>
	<rect x="210" y="700" class="st0" width="35" height="35"/>
	<polygon class="st0" points="630,735 630,700 595,700 595,665 560,665 560,700 560,735 595,735 595,770 630,770 665,770 665,735 	
		"/>
	<polygon class="st0" points="595,805 595,770 560,770 560,735 525,735 525,770 525,805 525,840 560,840 560,805 	"/>
	<rect x="770" y="770" class="st0" width="35" height="35"/>
	<rect x="595" y="805" class="st0" width="35" height="35"/>
	<rect x="350" y="910" class="st0" width="35" height="35"/>
	<polygon class="st0" points="280,980 280,1015 315,1015 350,1015 350,980 315,980 	"/>
	<polygon class="st0" points="385,980 385,1015 420,1015 455,1015 455,980 420,980 	"/>
	<polygon class="st0" points="840,980 840,1015 875,1015 910,1015 910,980 945,980 945,945 980,945 980,980 1015,980 1015,945 
		1015,910 1015,875 1015,840 1015,805 980,805 945,805 945,840 945,875 980,875 980,910 945,910 910,910 910,945 875,945 875,980 	
		"/>
	<path class="st0" d="M208.2,245H245v-36.8V36.8V0h-36.8H36.8H0v36.8v171.5V245h36.8H208.2z M36.8,36.8h171.5v171.5H36.8V36.8z"/>
	<path class="st0" d="M978.2,0H806.8H770v36.8v171.5V245h36.8h171.5h36.8v-36.8V36.8V0H978.2z M978.2,208.2H806.8V36.8h171.5V208.2z
		"/>
	<path class="st0" d="M36.8,770H0v36.8v171.5v36.8h36.8h171.5H245v-36.8V806.8V770h-36.8H36.8z M208.2,978.2H36.8V806.8h171.5V978.2
		z"/>
	<rect x="70" y="70" class="st0" width="105" height="105"/>
	<rect x="840" y="70" class="st0" width="105" height="105"/>
	<rect x="70" y="840" class="st0" width="105" height="105"/>
</g>
</svg>
