<?xml version="1.0" encoding="utf-8"?>
<!-- Generator: Adobe Illustrator 26.0.2, SVG Export Plug-In . SVG Version: 6.00 Build 0)  -->
<svg version="1.1" id="Layer_1" xmlns="http://www.w3.org/2000/svg" xmlns:xlink="http://www.w3.org/1999/xlink" x="0px" y="0px"
	 viewBox="0 0 1000 834.97" style="enable-background:new 0 0 1000 834.97;" xml:space="preserve">
<style type="text/css">
	.st0{fill:#EDF4FF;}
	.st1{fill:#8DB9F2;}
	.st2{fill:#CFE4FF;}
	.st3{fill:#253858;}
	.st4{fill:#C1C7D0;}
	.st5{fill:#F4F5F7;}
	.st6{fill:#DFE1E5;}
	.st7{fill:#B3BAC5;}
	.st8{fill:#FFFFFF;}
	.st9{fill:#EBECF0;}
	.st10{fill:#A5E1D2;}
	.st11{fill:#FFED00;stroke:#F39200;stroke-width:0.8501;stroke-miterlimit:10;}
	.st12{fill:#1D1D1B;}
	.st13{font-family:'Inter-ExtraBold';}
	.st14{font-size:19.8357px;}
	.st15{fill:#C45500;}
	.st16{font-size:12.3483px;}
	.st17{fill:none;}
	.st18{font-family:'Inter-Medium';}
	.st19{font-size:12.43px;}
	.st20{fill-rule:evenodd;clip-rule:evenodd;fill:#F7981D;}
	.st21{fill-rule:evenodd;clip-rule:evenodd;}
	.st22{clip-path:url(#SVGID_00000134948186618570641300000010432139398101474706_);}
	.st23{fill:#1B4E61;}
	.st24{fill:url(#SVGID_00000004524597020450981680000012322625129102739898_);}
	.st25{fill:#E289A9;}
	.st26{fill:#E87950;}
	.st27{fill:#DE4E31;}
	.st28{fill:#011E41;}
	.st29{fill:#FAF8DC;}
	.st30{fill:#0CAA41;}
	.st31{clip-path:url(#SVGID_00000111881707005534368650000018077606377327257988_);}
	.st32{fill:#FCC14A;}
	.st33{fill:url(#SVGID_00000085245982524426767960000001201203778272106431_);}
	.st34{fill:#FCC860;}
	.st35{fill:#009FE3;}
	.st36{fill:#F3D0DD;}
	.st37{fill:#547DBE;}
	.st38{fill:#E94435;}
	.st39{fill:#F8BB15;}
	.st40{fill:#34A751;}
	.st41{clip-path:url(#SVGID_00000028308562054689106740000014860364471258129795_);}
	.st42{fill:url(#SVGID_00000050623188816372993530000010996183228756515981_);}
	.st43{fill:#46ACC3;}
</style>
<path class="st0" d="M939.79,590.41c-25.04,27.32-57.59,46.13-78.76,77.34c-12.93,19.07-18.08,50.44,2.49,60.84
	c4.58,2.31,9.77,3.09,14.55,4.97c22.16,8.76,27.9,40.6,15.18,60.75c-12.72,20.16-37.74,29.44-61.54,30.75
	c-0.3,0.02-0.6,0.03-0.9,0.04c-94.06,2.75-188.46,0.79-282.55,0.86c-59.19,0.05-118.38,0.07-177.57,0.08
	c-55.34,0.01-113.38,10-167.29-7.03c-24.49-7.74-49.09-25.31-67.52-46.81c-11.27-13.14-20.24-27.76-25.46-42.49
	c-9.9-27.9-6.73-60.65,11.92-84.08c19.75-24.81,48.51-44.04,43.75-80.38c-2.72-20.75-17.55-38.07-34.49-50.35
	c-16.94-12.28-36.34-20.71-53.99-31.95C18.07,445-21.61,365.29,12.72,297.94c20.82-40.84,66.75-66.56,112.6-66.18
	c55.44,0.46,109.88,34.94,163.48,20.77c58.5-15.46,81.91-70.6,118.23-112.17C475.17,62.37,587.01,23.51,687.7,47.71
	c27.76,6.67,54.91,18.07,76.32,36.95c30.74,27.11,47.22,67.91,50.65,108.75c3.43,40.84-5.16,81.87-18.16,120.74
	c-8.5,25.43-17.95,50.84-21.52,77.63c-2.12,15.9,2.85,35.07,17.81,40.87c11.91,4.62,25.09-0.98,36.74-6.23
	c27.42-12.37,56.34-23.45,86.43-23.43c30.08,0.02,61.78,13.24,76.44,39.51c14.25,25.53,6.19,63.72-5.87,88.91
	C974.81,555.94,957.51,571.08,939.79,590.41z"/>
<g>
	<path class="st1" d="M344.79,767.44c-2.28-3-4.58-5.99-6.9-8.98l1.79-1.39c2.33,2.99,4.63,5.99,6.91,9L344.79,767.44z
		 M595.07,767.17c-2.91,0-5.82-0.02-8.73-0.06l0.03-2.27c2.9,0.04,5.8,0.06,8.7,0.06l2.61-0.01l0.01,2.27L595.07,767.17z
		 M609.05,767.01l-0.05-2.27c3.77-0.09,7.54-0.22,11.3-0.4l0.11,2.26C616.62,766.78,612.84,766.92,609.05,767.01z M574.99,766.89
		c-3.78-0.1-7.56-0.22-11.34-0.36l0.08-2.27c3.77,0.14,7.54,0.26,11.32,0.36L574.99,766.89z M552.31,766.07
		c-3.78-0.17-7.56-0.35-11.33-0.53l0.11-2.26c3.76,0.18,7.54,0.36,11.32,0.53L552.31,766.07z M631.74,765.92l-0.17-2.26
		c3.82-0.28,7.61-0.62,11.25-1.01l0.24,2.25C639.39,765.29,635.58,765.63,631.74,765.92z M654.35,763.53l-0.31-2.24
		c3.75-0.52,7.5-1.12,11.15-1.77l0.4,2.23C661.91,762.4,658.12,763,654.35,763.53z M676.74,759.52l-0.49-2.21
		c3.71-0.82,7.39-1.73,10.95-2.7l0.59,2.19C684.2,757.77,680.48,758.68,676.74,759.52z M698.71,753.55l-0.7-2.16
		c3.6-1.17,7.17-2.44,10.62-3.77l0.81,2.12C705.96,751.08,702.34,752.36,698.71,753.55z M330.87,749.58
		c-2.36-2.94-4.74-5.86-7.15-8.77l1.74-1.45c2.42,2.91,4.81,5.84,7.18,8.8L330.87,749.58z M719.96,745.35l-0.93-2.07
		c2.89-1.3,5.75-2.68,8.5-4.09l1.63-0.84l1.05,2.01l-1.65,0.86C725.78,742.64,722.88,744.03,719.96,745.35z M740.15,734.76
		l-1.17-1.94c3.19-1.92,6.37-3.98,9.47-6.1l1.28,1.87C746.59,730.74,743.37,732.82,740.15,734.76z M316.41,732.18
		c-2.47-2.86-4.96-5.69-7.48-8.48l1.68-1.52c2.53,2.81,5.04,5.65,7.51,8.52L316.41,732.18z M758.93,721.88l-1.39-1.79
		c2.93-2.27,5.87-4.68,8.72-7.15l1.48,1.71C764.86,717.15,761.9,719.58,758.93,721.88z M301.26,715.38
		c-2.59-2.74-5.21-5.45-7.87-8.12l1.61-1.6c2.67,2.68,5.31,5.4,7.91,8.16L301.26,715.38z M776.15,706.96l-1.57-1.63
		c2.68-2.59,5.35-5.29,7.91-8.03l1.66,1.55C781.55,701.61,778.87,704.34,776.15,706.96z M285.3,699.37
		c-2.76-2.62-5.56-5.2-8.32-7.65l1.51-1.69c2.77,2.47,5.59,5.06,8.37,7.7L285.3,699.37z M791.73,690.34l-1.73-1.47
		c2.41-2.84,4.79-5.79,7.09-8.78l1.8,1.38C796.56,684.5,794.15,687.48,791.73,690.34z M119.53,685.05c-2.58,0-5.1-0.12-7.48-0.34
		l0.21-2.26c3.07,0.29,6.42,0.4,9.73,0.3l1.44-0.05l0.09,2.27l-1.47,0.05C121.22,685.04,120.37,685.05,119.53,685.05z
		 M268.43,684.34c-2.93-2.44-5.89-4.82-8.8-7.07l1.39-1.79c2.93,2.27,5.91,4.67,8.86,7.13L268.43,684.34z M134.92,683.84l-0.35-2.24
		c3.65-0.57,7.34-1.35,10.96-2.32l0.59,2.19C142.42,682.46,138.65,683.26,134.92,683.84z M100.71,682.56
		c-3.9-1.16-7.46-2.76-10.6-4.73l1.21-1.92c2.96,1.86,6.34,3.37,10.04,4.47L100.71,682.56z M157.01,677.92l-0.81-2.12
		c3.47-1.33,6.91-2.87,10.24-4.56l1.03,2.02C164.07,674.99,160.55,676.56,157.01,677.92z M805.61,672.3l-1.86-1.3
		c2.14-3.07,4.25-6.23,6.26-9.4l1.91,1.21C809.9,666.01,807.77,669.2,805.61,672.3z M250.58,670.52c-2.05-1.47-4.12-2.91-6.22-4.32
		c-1.02-0.69-2.06-1.38-3.09-2.06l1.25-1.9c1.04,0.69,2.09,1.38,3.12,2.08c2.11,1.43,4.2,2.88,6.27,4.36L250.58,670.52z
		 M81.47,669.97c-2.38-3.17-4.17-6.79-5.17-10.49l2.19-0.59c0.93,3.42,2.59,6.78,4.8,9.72L81.47,669.97z M177.39,667.55l-1.23-1.9
		c3.13-2.02,6.19-4.23,9.09-6.57l1.42,1.77C183.7,663.22,180.58,665.48,177.39,667.55z M231.7,658.17
		c-3.23-1.92-6.54-3.78-9.83-5.53l1.07-2c3.32,1.77,6.66,3.65,9.92,5.59L231.7,658.17z M195.19,653.21l-1.6-1.61
		c2.65-2.64,5.18-5.45,7.5-8.33l1.76,1.42C200.48,647.64,197.9,650.5,195.19,653.21z M817.8,653.08l-1.97-1.13
		c1.86-3.24,3.69-6.57,5.42-9.9l2.01,1.04C821.52,646.45,819.68,649.81,817.8,653.08z M78.05,648.2l-2.22-0.46
		c0.41-1.96,1.09-3.84,2.01-5.58c0.92-1.75,2.09-3.39,3.46-4.87l1.66,1.54c-1.24,1.34-2.29,2.82-3.12,4.39
		C79.02,644.76,78.41,646.44,78.05,648.2z M211.79,647.56c-3.39-1.61-6.86-3.15-10.3-4.59l0.87-2.09c3.48,1.45,6.98,3.01,10.4,4.63
		L211.79,647.56z M190.97,638.9c-3.57-1.28-7.17-2.46-10.71-3.52l0.65-2.17c3.58,1.07,7.22,2.27,10.83,3.56L190.97,638.9z
		 M209.53,635.39l-1.91-1.22c1.97-3.1,3.83-6.38,5.52-9.76l2.03,1.01C213.44,628.87,211.55,632.22,209.53,635.39z M828.3,632.88
		l-2.05-0.96c1.57-3.35,3.11-6.83,4.58-10.32l2.09,0.88C831.44,626,829.88,629.5,828.3,632.88z M91.83,632.65l-0.94-2.06
		c3.19-1.45,6.9-2.61,11.04-3.45l0.45,2.22C98.42,630.17,94.87,631.28,91.83,632.65z M169.37,632.45
		c-3.67-0.88-7.38-1.66-11.03-2.31l0.4-2.23c3.69,0.66,7.44,1.45,11.16,2.34L169.37,632.45z M147.2,628.48
		c-3.77-0.44-7.54-0.76-11.22-0.95l0.12-2.26c3.73,0.19,7.55,0.51,11.37,0.96L147.2,628.48z M113.49,627.87l-0.19-2.26
		c3.76-0.32,7.59-0.5,11.4-0.56l0.03,2.27C120.98,627.38,117.2,627.56,113.49,627.87z M219.8,614.97l-2.11-0.82
		c1.33-3.41,2.55-6.98,3.64-10.63l2.17,0.65C222.4,607.87,221.15,611.5,219.8,614.97z M837.1,611.89l-2.13-0.79
		c1.31-3.53,2.57-7.11,3.74-10.65l2.15,0.71C839.68,604.73,838.42,608.34,837.1,611.89z M226.36,593.11l-2.21-0.49
		c0.79-3.57,1.49-7.29,2.08-11.07l2.24,0.35C227.87,585.73,227.16,589.5,226.36,593.11z M844.25,590.3l-2.17-0.64
		c1.04-3.57,2.05-7.24,2.99-10.89l2.2,0.56C846.31,583.02,845.3,586.71,844.25,590.3z M229.92,570.6l-2.26-0.23
		c0.37-3.64,0.67-7.42,0.88-11.25l2.26,0.12C230.59,563.11,230.29,566.93,229.92,570.6z M849.9,568.28l-2.21-0.49
		c0.81-3.63,1.57-7.35,2.28-11.07l2.23,0.43C851.48,560.89,850.71,564.63,849.9,568.28z M231.23,547.88l-2.27-0.04
		c0.04-1.97,0.05-3.93,0.05-5.89c0-1.8-0.01-3.61-0.04-5.41l2.27-0.04c0.03,1.81,0.04,3.63,0.04,5.44
		C231.28,543.92,231.26,545.9,231.23,547.88z M854.16,545.95l-2.24-0.36c0.59-3.7,1.14-7.46,1.64-11.18l2.25,0.3
		C855.31,538.45,854.75,542.23,854.16,545.95z M228.61,525.25c-0.17-3.68-0.41-7.48-0.7-11.28l2.26-0.17
		c0.29,3.82,0.53,7.64,0.7,11.34L228.61,525.25z M857.15,523.42l-2.25-0.24c0.4-3.75,0.75-7.5,1.06-11.26l2.26,0.19
		C857.9,515.88,857.55,519.65,857.15,523.42z M226.91,502.71c-0.38-3.75-0.8-7.49-1.26-11.24l2.25-0.28
		c0.46,3.76,0.89,7.52,1.27,11.29L226.91,502.71z M859.01,500.77l-2.26-0.13c0.22-3.76,0.41-7.53,0.55-11.3l2.27,0.09
		C859.42,493.21,859.23,496.99,859.01,500.77z M224.15,480.27c-0.53-3.73-1.1-7.46-1.69-11.19l2.24-0.35
		c0.59,3.74,1.16,7.48,1.7,11.22L224.15,480.27z M859.87,478.07l-2.27-0.04c0.07-3.65,0.1-7.29,0.1-10.94l0-0.38h2.27l0,0.36
		C859.97,470.75,859.94,474.41,859.87,478.07z M220.61,457.91c-0.64-3.72-1.3-7.43-1.98-11.15l2.23-0.41
		c0.68,3.72,1.34,7.45,1.98,11.17L220.61,457.91z M857.6,455.41c-0.04-2.42-0.1-4.84-0.17-7.26c-0.04-1.35-0.08-2.71-0.12-4.05
		l2.27-0.08c0.05,1.36,0.09,2.71,0.12,4.07c0.07,2.42,0.12,4.85,0.17,7.28L857.6,455.41z M216.57,435.63
		c-0.7-3.71-1.41-7.42-2.13-11.13l2.23-0.43c0.72,3.71,1.43,7.43,2.13,11.14L216.57,435.63z M856.84,432.79
		c-0.19-3.77-0.4-7.54-0.64-11.3l2.26-0.14c0.24,3.78,0.45,7.55,0.64,11.33L856.84,432.79z M212.28,413.37
		c-0.72-3.71-1.44-7.42-2.15-11.13l2.23-0.43c0.71,3.71,1.43,7.42,2.15,11.13L212.28,413.37z M855.39,410.2
		c-0.3-3.76-0.63-7.52-0.98-11.27l2.26-0.21c0.36,3.77,0.68,7.54,0.98,11.31L855.39,410.2z M208.03,391.1
		c-0.69-3.72-1.37-7.44-2.03-11.16l2.23-0.4c0.66,3.72,1.34,7.43,2.03,11.14L208.03,391.1z M853.26,387.66
		c-0.41-3.75-0.85-7.5-1.32-11.24l2.25-0.28c0.47,3.75,0.91,7.51,1.33,11.27L853.26,387.66z M204.07,368.75
		c-0.62-3.73-1.22-7.47-1.79-11.21l2.24-0.34c0.57,3.73,1.16,7.46,1.78,11.18L204.07,368.75z M850.44,365.21
		c-0.53-3.74-1.08-7.47-1.66-11.2l2.24-0.35c0.58,3.74,1.14,7.48,1.67,11.23L850.44,365.21z M200.67,346.3
		c-0.5-3.75-0.97-7.51-1.4-11.27l2.25-0.26c0.43,3.74,0.9,7.49,1.4,11.23L200.67,346.3z M846.95,342.84
		c-0.64-3.72-1.31-7.43-2-11.14l2.23-0.42c0.7,3.72,1.37,7.44,2.01,11.17L846.95,342.84z M198.11,323.72
		c-0.34-3.77-0.64-7.55-0.88-11.33l2.26-0.15c0.24,3.76,0.53,7.52,0.87,11.27L198.11,323.72z M842.77,320.6
		c-0.75-3.7-1.53-7.39-2.34-11.07l2.21-0.48c0.81,3.7,1.59,7.4,2.34,11.11L842.77,320.6z M196.67,301.04
		c-0.12-3.38-0.17-6.74-0.17-10l0-1.38l2.27,0.01l0,1.37c0,3.23,0.06,6.57,0.17,9.92L196.67,301.04z M837.94,298.49
		c-0.86-3.67-1.75-7.34-2.67-11l2.2-0.55c0.92,3.67,1.81,7.35,2.68,11.03L837.94,298.49z M199.07,278.4l-2.26-0.11
		c0.19-3.84,0.47-7.67,0.84-11.36l2.26,0.22C199.53,270.81,199.25,274.59,199.07,278.4z M832.43,276.53
		c-0.97-3.65-1.97-7.28-3.01-10.91l2.18-0.62c1.03,3.64,2.04,7.29,3.02,10.95L832.43,276.53z M201.33,255.97l-2.24-0.35
		c0.6-3.83,1.32-7.6,2.13-11.21l2.21,0.5C202.63,248.47,201.92,252.19,201.33,255.97z M826.25,254.76c-0.7-2.32-1.41-4.64-2.13-6.95
		l-1.21-3.86l2.16-0.68l1.22,3.87c0.72,2.32,1.43,4.65,2.13,6.97L826.25,254.76z M206.29,234.02l-2.17-0.66
		c1.12-3.7,2.39-7.33,3.76-10.79l2.11,0.84C208.64,226.81,207.39,230.38,206.29,234.02z M819.43,233.17
		c-1.19-3.58-2.39-7.16-3.62-10.73l2.14-0.73c1.23,3.58,2.44,7.16,3.62,10.75L819.43,233.17z M214.6,213.18l-2.02-1.03
		c1.74-3.43,3.66-6.77,5.69-9.93l1.91,1.23C218.18,206.54,216.31,209.82,214.6,213.18z M646.95,212.49c-3.61,0-7.22-0.05-10.83-0.15
		l0.06-2.27c3.62,0.1,7.33,0.19,10.87,0.14h0.43v2.27h-0.43C647.03,212.49,646.99,212.49,646.95,212.49z M658.86,212.32l-0.07-2.27
		c3.44-0.1,6.89-0.25,10.34-0.45l0.95-0.06l0.13,2.26l-0.96,0.06C665.79,212.07,662.32,212.22,658.86,212.32z M624.78,211.89
		c-3.78-0.2-7.56-0.45-11.34-0.75l0.18-2.26c3.76,0.3,7.52,0.55,11.28,0.75L624.78,211.89z M812.1,211.74
		c-1.25-3.56-2.51-7.12-3.79-10.68l2.13-0.76c1.27,3.56,2.54,7.12,3.79,10.69L812.1,211.74z M681.55,210.95l-0.21-2.26
		c3.77-0.35,7.55-0.77,11.23-1.24l0.29,2.25C689.16,210.17,685.35,210.59,681.55,210.95z M602.12,210.11
		c-3.76-0.39-7.53-0.82-11.28-1.3l0.28-2.25c3.74,0.47,7.49,0.91,11.24,1.29L602.12,210.11z M704.11,208.03l-0.37-2.24
		c3.73-0.62,7.47-1.33,11.1-2.08l0.46,2.22C711.64,206.7,707.88,207.41,704.11,208.03z M579.58,207.25
		c-3.74-0.56-7.48-1.16-11.22-1.8l0.38-2.23c3.72,0.63,7.44,1.23,11.17,1.79L579.58,207.25z M557.19,203.43
		c-3.72-0.71-7.43-1.46-11.13-2.24l0.47-2.22c3.69,0.78,7.39,1.52,11.09,2.23L557.19,203.43z M726.39,203.36l-0.56-2.2
		c3.68-0.94,7.33-1.96,10.87-3.04l0.66,2.17C733.79,201.39,730.1,202.42,726.39,203.36z M534.97,198.75
		c-3.69-0.85-7.37-1.73-11.05-2.63l0.54-2.2c3.66,0.91,7.33,1.78,11.01,2.62L534.97,198.75z M748.16,196.71l-0.77-2.13
		c3.56-1.28,7.1-2.66,10.5-4.1l0.88,2.09C755.34,194.02,751.77,195.41,748.16,196.71z M226.73,194.37l-1.76-1.43
		c2.38-2.95,4.97-5.8,7.69-8.49l1.59,1.61C231.59,188.69,229.06,191.49,226.73,194.37z M512.93,193.31
		c-3.66-0.96-7.31-1.96-10.95-2.98l0.61-2.18c3.63,1.02,7.27,2.01,10.92,2.97L512.93,193.31z M804.48,190.4l-3.85-10.66l2.13-0.77
		l3.85,10.66L804.48,190.4z M769.16,187.86l-1-2.04c3.39-1.66,6.74-3.42,9.96-5.25l1.12,1.97
		C775.98,184.39,772.59,186.18,769.16,187.86z M491.06,187.2c-3.63-1.07-7.25-2.16-10.87-3.27l0.67-2.17
		c3.6,1.11,7.22,2.2,10.84,3.27L491.06,187.2z M469.37,180.53c-3.6-1.15-7.2-2.31-10.8-3.47l0.7-2.16c3.6,1.16,7.19,2.32,10.79,3.47
		L469.37,180.53z M242.64,178.62l-1.41-1.77c2.94-2.34,6.07-4.58,9.3-6.66l1.23,1.91C248.58,174.13,245.52,176.33,242.64,178.62z
		 M788.99,176.63l-1.24-1.9c3.01-1.96,5.98-4.04,8.85-6.2c-1.21-3.38-2.42-6.76-3.61-10.14l2.14-0.75c1.26,3.56,2.52,7.12,3.8,10.67
		l-1.52,0.55l0.92,1.21C795.31,172.35,792.17,174.56,788.99,176.63z M447.79,173.56c-3.59-1.16-7.19-2.31-10.79-3.45l0.68-2.16
		c3.6,1.14,7.2,2.3,10.8,3.46L447.79,173.56z M426.19,166.75c-3.61-1.1-7.23-2.18-10.85-3.22l0.63-2.18
		c3.63,1.04,7.26,2.12,10.88,3.23L426.19,166.75z M261.46,166.47l-1.04-2.01c3.32-1.72,6.81-3.34,10.36-4.81l0.87,2.09
		C268.15,163.19,264.73,164.78,261.46,166.47z M807.18,162.88l-1.49-1.71c2.83-2.46,5.59-5.05,8.22-7.69l1.61,1.6
		C812.86,157.76,810.05,160.38,807.18,162.88z M404.44,160.52c-3.65-0.97-7.3-1.89-10.96-2.76l0.52-2.2
		c3.68,0.87,7.35,1.8,11.02,2.77L404.44,160.52z M282.19,157.87l-0.7-2.16c3.55-1.15,7.25-2.19,10.98-3.1l0.54,2.2
		C289.34,155.72,285.7,156.74,282.19,157.87z M382.44,155.33c-3.75-0.76-7.49-1.46-11.1-2.06l0.37-2.24
		c3.64,0.6,7.41,1.3,11.19,2.07L382.44,155.33z M304.04,152.54l-0.38-2.23c3.7-0.64,7.5-1.16,11.3-1.56l0.24,2.25
		C311.45,151.4,307.69,151.91,304.04,152.54z M360.17,151.66c-3.78-0.46-7.55-0.84-11.22-1.12l0.17-2.26
		c3.7,0.28,7.52,0.66,11.33,1.13L360.17,151.66z M326.43,150.17l-0.1-2.26c3.79-0.16,7.62-0.21,11.4-0.15l-0.04,2.27
		C333.95,149.95,330.17,150.01,326.43,150.17z M789.24,147.68c-1.23-3.58-2.45-7.16-3.65-10.74l2.15-0.72
		c1.2,3.58,2.41,7.15,3.64,10.72L789.24,147.68z M823.29,146.71l-1.72-1.48c2.46-2.86,4.83-5.81,7.03-8.78l1.82,1.35
		C828.19,140.81,825.79,143.81,823.29,146.71z M836.86,128.36l-1.92-1.2c2.01-3.2,3.88-6.49,5.58-9.76l2.01,1.04
		C840.81,121.77,838.9,125.1,836.86,128.36z M782.06,126.16c-1.15-3.6-2.28-7.21-3.38-10.83l2.17-0.66c1.1,3.61,2.22,7.21,3.38,10.8
		L782.06,126.16z M847.35,108.08l-2.09-0.87c1.44-3.47,2.73-7.03,3.83-10.55l2.17,0.68C850.13,100.93,848.82,104.54,847.35,108.08z
		 M775.47,104.43c-1.04-3.64-2.04-7.29-3.01-10.95l2.19-0.58c0.96,3.65,1.96,7.28,2.99,10.91L775.47,104.43z M854.14,86.27
		l-2.22-0.47c0.71-3.37,1.28-6.8,1.68-10.19l0.1-0.88l2.25,0.25l-0.1,0.9C855.44,79.34,854.86,82.84,854.14,86.27z M769.69,82.46
		c-0.33-1.4-0.67-2.81-0.99-4.22c-0.52-2.26-1.01-4.57-1.44-6.91l2.23-0.42c0.43,2.31,0.91,4.59,1.42,6.82
		c0.32,1.4,0.65,2.8,0.99,4.2L769.69,82.46z M854.29,63.54c-0.02-3.79-0.27-7.55-0.74-11.16l2.25-0.29
		c0.48,3.71,0.74,7.56,0.75,11.45L854.29,63.54z M765.6,60.03c-0.41-3.93-0.62-7.76-0.62-11.36l1.99-0.06l0.27,0
		c0,3.59,0.21,7.33,0.61,11.19L765.6,60.03z M851.33,41.44c-1.03-3.66-2.33-7.17-3.87-10.43l2.05-0.97c1.6,3.38,2.95,7.01,4,10.79
		L851.33,41.44z M768.01,37.46l-2.24-0.32c0.58-4.01,1.5-7.79,2.73-11.22l2.13,0.77C769.45,29.97,768.57,33.6,768.01,37.46z
		 M841.79,21.47c-1-1.36-2.07-2.68-3.19-3.92c-1.32-1.47-2.77-2.87-4.32-4.18l1.47-1.73c1.63,1.38,3.15,2.86,4.54,4.4
		c1.16,1.29,2.28,2.67,3.33,4.09L841.79,21.47z M775.64,16.91l-1.85-1.31c2.26-3.2,4.98-6.01,8.08-8.36l1.37,1.81
		C780.32,11.25,777.76,13.9,775.64,16.91z M825.06,7.3c-3.32-1.67-6.81-2.95-10.38-3.8l0.53-2.2c3.74,0.9,7.39,2.23,10.87,3.98
		L825.06,7.3z M792.91,4.02l-0.7-2.16c3.61-1.17,7.47-1.8,11.48-1.86l0.04,2.27C799.96,2.33,796.31,2.92,792.91,4.02z"/>
</g>
<path class="st2" d="M847.79,818.4c-24.77-2.43-49.6-2.04-74.42-2.15c-24.82-0.14-49.63-0.16-74.44-0.25
	c-57.64-0.18-115.26-0.41-172.9-0.53c-0.75-0.01-1.5-0.01-2.24-0.01c-0.75,0-1.5-0.01-2.24-0.01c-57.64,0.13-115.26,0.37-172.9,0.54
	c-24.81,0.09-49.62,0.11-74.44,0.25c-24.83,0.11-49.65-0.27-74.42,2.15c-6.39,0.63-6.41,12.92,0,13.56
	c22.1,2.15,44.16,1.97,66.3,2.11c22.11,0.16,44.21,0.18,66.32,0.25c44.21,0.14,88.42,0.27,132.63,0.45
	c18.84,0.08,37.67,0.14,56.51,0.19c0.75,0.01,1.49,0.01,2.24,0.01c0.75,0,1.5,0.01,2.24,0.01c18.84-0.06,37.67-0.12,56.51-0.2
	c44.21-0.18,88.42-0.32,132.63-0.45c22.11-0.07,44.21-0.09,66.32-0.25c22.15-0.14,44.21,0.05,66.3-2.11
	C854.19,831.32,854.18,819.04,847.79,818.4z"/>
<g>
	<g>
		<path class="st3" d="M324.21,773.9V124.16c0-27.92,22.63-50.55,50.55-50.55H672.8c27.92,0,50.55,22.63,50.55,50.55V773.9
			c0,27.92-22.63,50.55-50.55,50.55H374.75C346.84,824.44,324.21,801.81,324.21,773.9z"/>
		<path class="st4" d="M374.75,806.91c-18.2,0-33.01-14.81-33.01-33.01V124.16c0-18.2,14.81-33.01,33.01-33.01H672.8
			c18.2,0,33.01,14.81,33.01,33.01V773.9c0,18.2-14.81,33.01-33.01,33.01H374.75z"/>
		<path class="st5" d="M698.96,124.15v649.75c0,1.52-0.14,2.99-0.39,4.42c-0.48,2.88-1.45,5.62-2.81,8.09
			c-2.79,5.1-7.25,9.2-12.63,11.54c-0.79,0.34-1.61,0.66-2.45,0.93c-2.49,0.79-5.15,1.22-7.89,1.22H374.74
			c-0.7,0-1.41-0.02-2.09-0.09c-1.5-0.11-2.95-0.36-4.35-0.73c-0.7-0.18-1.41-0.39-2.11-0.63c-9.88-3.38-17.09-12.49-17.64-23.37
			c-0.05-0.45-0.07-0.91-0.07-1.38V124.15c0-14.44,11.77-26.21,26.21-26.21h298.06C687.19,97.94,698.96,109.71,698.96,124.15z"/>
	</g>
	<g>
		
			<rect x="454.4" y="61.7" transform="matrix(2.153056e-03 -1 1 2.153056e-03 313.3221 616.8154)" class="st4" width="22.67" height="179.43"/>
	</g>
	<g>
		
			<rect x="438.07" y="119.12" transform="matrix(2.852128e-03 -1 1 2.852128e-03 255.6347 630.0445)" class="st4" width="11.33" height="135.44"/>
	</g>
	<g>
		<circle class="st6" cx="494.26" cy="771.87" r="6.37"/>
		<circle class="st7" cx="523.78" cy="771.87" r="6.37"/>
		<circle class="st6" cx="553.3" cy="771.87" r="6.37"/>
	</g>
	<g>
		<path class="st8" d="M663.02,357.07H384.53c-4.67,0-8.46-3.79-8.46-8.46V233.77c0-4.67,3.79-8.46,8.46-8.46h278.49
			c4.67,0,8.46,3.79,8.46,8.46v114.85C671.48,353.29,667.69,357.07,663.02,357.07z"/>
		<g>
			
				<rect x="514.71" y="131.43" transform="matrix(1.562513e-03 -1 1 1.562513e-03 267.9059 778.4321)" class="st9" width="18.14" height="247.24"/>
		</g>
		<g>
			
				<rect x="514.71" y="165.01" transform="matrix(1.562513e-03 -1 1 1.562513e-03 234.3348 811.9509)" class="st9" width="18.14" height="247.24"/>
		</g>
		<g>
			
				<rect x="459.53" y="253.75" transform="matrix(2.822260e-03 -1 1 2.822260e-03 145.0826 789.8846)" class="st9" width="18.14" height="136.88"/>
		</g>
	</g>
	<g>
		<path class="st8" d="M663.02,532.91H384.53c-4.67,0-8.46-3.79-8.46-8.46V409.6c0-4.67,3.79-8.46,8.46-8.46h278.49
			c4.67,0,8.46,3.79,8.46,8.46v114.85C671.48,529.12,667.69,532.91,663.02,532.91z"/>
		<g>
			
				<rect x="514.71" y="307.27" transform="matrix(1.557928e-03 -1 1 1.557928e-03 92.073 953.9949)" class="st9" width="18.13" height="247.24"/>
		</g>
		<g>
			
				<rect x="514.71" y="340.84" transform="matrix(1.558043e-03 -1 1 1.558043e-03 58.5013 987.5143)" class="st9" width="18.14" height="247.24"/>
		</g>
		<g>
			
				<rect x="459.53" y="429.59" transform="matrix(2.830333e-03 -1 1 2.830333e-03 -30.7566 965.2205)" class="st9" width="18.14" height="136.88"/>
		</g>
	</g>
	<g>
		<path class="st8" d="M663.02,708.75H384.53c-4.67,0-8.46-3.79-8.46-8.46V585.44c0-4.67,3.79-8.46,8.46-8.46h278.49
			c4.67,0,8.46,3.79,8.46,8.46v114.85C671.48,704.96,667.69,708.75,663.02,708.75z"/>
		<g>
			
				<rect x="514.71" y="483.11" transform="matrix(1.558043e-03 -1 1 1.558043e-03 -83.7641 1129.5581)" class="st9" width="18.14" height="247.24"/>
		</g>
		<g>
			
				<rect x="514.71" y="516.68" transform="matrix(1.557928e-03 -1 1 1.557928e-03 -117.334 1163.076)" class="st9" width="18.14" height="247.24"/>
		</g>
		<g>
			
				<rect x="459.53" y="605.43" transform="matrix(2.814186e-03 -1 1 2.814186e-03 -206.585 1140.5703)" class="st9" width="18.14" height="136.88"/>
		</g>
	</g>
</g>
<g>
	<g>
		<path class="st10" d="M906.27,60.54H555.4c-15.85,0-28.69,12.85-28.69,28.69v151.85c0,15.85,12.85,28.69,28.69,28.69h44.76
			l-17.42,39.94l56.07-39.94h267.46c15.85,0,28.69-12.85,28.69-28.69V89.23C934.96,73.39,922.12,60.54,906.27,60.54z"/>
	</g>
	<g>
		<g>
			<polygon class="st11" points="702.28,119 706.87,128.29 717.13,129.78 709.71,137.02 711.46,147.24 702.28,142.41 693.11,147.24 
				694.86,137.02 687.44,129.78 697.7,128.29 			"/>
			<polygon class="st11" points="738.84,119 743.43,128.29 753.69,129.78 746.27,137.02 748.02,147.24 738.84,142.41 729.67,147.24 
				731.42,137.02 724,129.78 734.26,128.29 			"/>
			<polygon class="st11" points="775.4,119 779.99,128.29 790.25,129.78 782.83,137.02 784.58,147.24 775.4,142.41 766.23,147.24 
				767.98,137.02 760.56,129.78 770.81,128.29 			"/>
			<polygon class="st11" points="811.96,119 816.55,128.29 826.81,129.78 819.38,137.02 821.14,147.24 811.96,142.41 802.79,147.24 
				804.54,137.02 797.11,129.78 807.37,128.29 			"/>
			<polygon class="st11" points="848.52,119 853.11,128.29 863.37,129.78 855.94,137.02 857.7,147.24 848.52,142.41 839.34,147.24 
				841.1,137.02 833.67,129.78 843.93,128.29 			"/>
		</g>
		<text transform="matrix(1.0003 0 0 1 691.4727 103.9011)" class="st12 st13 st14">William Simmons</text>
		<text transform="matrix(1.0003 0 0 1 563.667 205.9534)" class="st15 st13 st16">Review Left On</text>
		<rect x="691.87" y="162.95" class="st17" width="215.55" height="88.19"/>
		<text transform="matrix(1 0 0 1 691.873 171.9949)"><tspan x="0" y="0" class="st12 st18 st19">“I love the smell of these candles! </tspan><tspan x="0" y="17" class="st12 st18 st19">Usually candle companies skimp on </tspan><tspan x="0" y="34" class="st12 st18 st19">the scent, but not these. One </tspan><tspan x="0" y="51.01" class="st12 st18 st19">candle made my whole house smell </tspan><tspan x="0" y="68.01" class="st12 st18 st19">amazing! Will be ordering more.” </tspan></text>
		<g>
			<g>
				<path class="st20" d="M619.96,241.19c-5.04,3.72-12.34,5.69-18.63,5.69c-8.81,0-16.75-3.26-22.75-8.68
					c-0.47-0.43-0.05-1.01,0.52-0.68c6.48,3.77,14.49,6.04,22.77,6.04c5.58,0,11.72-1.16,17.37-3.55
					C620.08,239.65,620.8,240.57,619.96,241.19z"/>
				<path class="st20" d="M622.06,238.79c-0.64-0.82-4.26-0.39-5.88-0.2c-0.49,0.06-0.57-0.37-0.12-0.68
					c2.88-2.02,7.61-1.44,8.16-0.76c0.55,0.68-0.15,5.42-2.85,7.68c-0.42,0.35-0.81,0.16-0.63-0.3
					C621.34,243.02,622.7,239.62,622.06,238.79z"/>
			</g>
			<g>
				<path class="st21" d="M616.29,223.61v-1.97c0-0.3,0.23-0.5,0.5-0.5l8.82,0c0.28,0,0.51,0.21,0.51,0.5v1.69
					c0,0.28-0.24,0.65-0.66,1.24l-4.57,6.52c1.7-0.04,3.49,0.21,5.03,1.08c0.35,0.2,0.44,0.48,0.47,0.77v2.1
					c0,0.29-0.32,0.62-0.65,0.45c-2.71-1.42-6.32-1.58-9.32,0.02c-0.31,0.16-0.63-0.17-0.63-0.46v-2c0-0.32,0.01-0.87,0.33-1.35
					l5.29-7.59l-4.61,0C616.52,224.1,616.29,223.9,616.29,223.61z"/>
				<path class="st21" d="M584.12,235.9h-2.68c-0.26-0.02-0.46-0.21-0.48-0.45l0-13.77c0-0.28,0.23-0.5,0.52-0.5l2.5,0
					c0.26,0.01,0.47,0.21,0.49,0.46v1.8h0.05c0.65-1.74,1.88-2.55,3.53-2.55c1.68,0,2.73,0.81,3.48,2.55
					c0.65-1.74,2.13-2.55,3.71-2.55c1.13,0,2.35,0.46,3.11,1.51c0.85,1.16,0.68,2.84,0.68,4.32l0,8.69c0,0.27-0.23,0.5-0.52,0.5
					h-2.68c-0.27-0.02-0.48-0.23-0.48-0.49l0-7.3c0-0.58,0.05-2.03-0.08-2.58c-0.2-0.93-0.8-1.19-1.58-1.19
					c-0.65,0-1.33,0.43-1.6,1.13c-0.28,0.7-0.25,1.85-0.25,2.64v7.3c0,0.27-0.23,0.5-0.52,0.5h-2.68c-0.27-0.02-0.48-0.23-0.48-0.49
					l0-7.3c0-1.54,0.25-3.8-1.65-3.8c-1.93,0-1.85,2.2-1.85,3.8l0,7.3C584.64,235.68,584.41,235.9,584.12,235.9z"/>
				<path class="st21" d="M633.71,220.89c3.98,0,6.14,3.42,6.14,7.77c0,4.2-2.38,7.53-6.14,7.53c-3.91,0-6.04-3.42-6.04-7.68
					C627.67,224.22,629.83,220.89,633.71,220.89z M633.73,223.7c-1.98,0-2.1,2.69-2.1,4.38c0,1.68-0.02,5.27,2.08,5.27
					c2.08,0,2.18-2.9,2.18-4.66c0-1.16-0.05-2.55-0.4-3.65C635.19,224.08,634.59,223.7,633.73,223.7z"/>
				<path class="st21" d="M645.01,235.9h-2.67c-0.27-0.02-0.48-0.23-0.48-0.49l0-13.78c0.02-0.25,0.25-0.45,0.52-0.45l2.49,0
					c0.23,0.01,0.43,0.17,0.48,0.39v2.11h0.05c0.75-1.88,1.8-2.78,3.66-2.78c1.2,0,2.38,0.43,3.13,1.62c0.7,1.1,0.7,2.96,0.7,4.29
					v8.67c-0.03,0.24-0.25,0.43-0.51,0.43h-2.69c-0.25-0.02-0.45-0.2-0.48-0.43v-7.48c0-1.51,0.18-3.71-1.68-3.71
					c-0.65,0-1.25,0.43-1.55,1.1c-0.38,0.84-0.43,1.68-0.43,2.61v7.41C645.53,235.68,645.3,235.9,645.01,235.9z"/>
				<path class="st21" d="M609.26,229.32c0,1.05,0.02,1.92-0.5,2.85c-0.43,0.75-1.1,1.22-1.86,1.22c-1.03,0-1.63-0.78-1.63-1.95
					c0-2.29,2.05-2.7,3.99-2.7V229.32z M611.97,235.86c-0.18,0.16-0.43,0.17-0.63,0.06c-0.89-0.74-1.05-1.08-1.54-1.79
					c-1.47,1.5-2.52,1.95-4.42,1.95c-2.26,0-4.02-1.39-4.02-4.18c0-2.18,1.18-3.66,2.86-4.39c1.46-0.64,3.49-0.76,5.05-0.93v-0.35
					c0-0.64,0.05-1.39-0.33-1.95c-0.33-0.49-0.95-0.7-1.51-0.7c-1.02,0-1.93,0.52-2.16,1.61c-0.05,0.24-0.22,0.48-0.47,0.49
					l-2.6-0.28c-0.22-0.05-0.46-0.23-0.4-0.56c0.6-3.15,3.45-4.11,6-4.11c1.31,0,3.01,0.35,4.04,1.34c1.31,1.22,1.18,2.85,1.18,4.62
					v4.18c0,1.26,0.52,1.81,1.01,2.49c0.17,0.24,0.21,0.53-0.01,0.71C613.48,234.55,612.51,235.39,611.97,235.86L611.97,235.86z"/>
				<path class="st21" d="M574.09,229.32c0,1.05,0.03,1.92-0.5,2.85c-0.43,0.75-1.1,1.22-1.86,1.22c-1.03,0-1.63-0.78-1.63-1.95
					c0-2.29,2.05-2.7,3.99-2.7V229.32z M576.79,235.86c-0.18,0.16-0.43,0.17-0.63,0.06c-0.89-0.74-1.05-1.08-1.54-1.79
					c-1.47,1.5-2.52,1.95-4.42,1.95c-2.26,0-4.02-1.39-4.02-4.18c0-2.18,1.18-3.66,2.86-4.39c1.46-0.64,3.49-0.76,5.04-0.93v-0.35
					c0-0.64,0.05-1.39-0.33-1.95c-0.33-0.49-0.95-0.7-1.51-0.7c-1.02,0-1.93,0.52-2.16,1.61c-0.05,0.24-0.22,0.48-0.47,0.49
					l-2.6-0.28c-0.22-0.05-0.46-0.23-0.4-0.56c0.6-3.15,3.45-4.11,6-4.11c1.31,0,3.01,0.35,4.04,1.34c1.3,1.22,1.18,2.85,1.18,4.62
					v4.18c0,1.26,0.52,1.81,1.01,2.49c0.17,0.24,0.21,0.53-0.01,0.71C578.31,234.55,577.34,235.39,576.79,235.86L576.79,235.86z"/>
			</g>
		</g>
		<g>
			<g>
				<defs>
					<circle id="SVGID_1_" cx="609.26" cy="131.56" r="52.88"/>
				</defs>
				<use xlink:href="#SVGID_1_"  style="overflow:visible;fill:#FEDFA8;"/>
				<clipPath id="SVGID_00000051380047581447060970000015877754179378401677_">
					<use xlink:href="#SVGID_1_"  style="overflow:visible;"/>
				</clipPath>
				<g style="clip-path:url(#SVGID_00000051380047581447060970000015877754179378401677_);">
					<path class="st23" d="M594.54,95.48c1.93-2.12,4.21-0.57,6.15-0.45c1.94,0.12,2.79-0.61,4.74-1.09
						c1.94-0.49,3.76,1.21,4.74,2.43c0.97,1.21,2.91,1.21,3.64,0.36s2.06-2.91,4.74-2.55c2.67,0.36,3.64,2.19,3.64,3.76
						s-0.36,3.16,0.85,3.76c1.21,0.61,3.76,0.61,4.01,2.06c0.24,1.46,0.61,3.04,2.31,3.4c1.7,0.36,6.31-0.24,7.77,3.04
						c1.46,3.28-1.09,5.34-2.19,6.92s-1.34,4.98,0.73,6.31c2.06,1.34,2.91,3.04,1.82,5.83c-1.09,2.79,0.36,4.37,1.34,6.07
						c0.97,1.7,0.24,4.74-1.82,5.46c-2.06,0.73-4.25,0.12-5.1,1.82c-0.85,1.7-1.21,4.25-3.64,4.37c-2.43,0.12-3.64-1.94-5.46-1.7
						c-1.82,0.24-2.91,2.67-5.95,1.94c-3.04-0.73-15.54-4.98-15.54-4.98s-3.04,5.46-6.56,5.1c-3.52-0.36-2.19-2.06-4.01-2.43
						c-1.82-0.36-3,1.3-5.34,0.08c-1.69-0.87-0.08-2.47-1.54-3.32s-3-0.08-3.32-2.51c-0.37-2.81,2.02-4.25,1.78-5.34
						c-0.24-1.09-2.75-2.02-2.51-5.18s2.81-3.91,3.56-5.99c1.05-2.91-0.18-3.53-0.73-8.26c-0.4-3.48,3.2-6.55,5.5-6.96
						c2.75-0.49,4.45-1.13,5.18-3.32C594.05,101.96,591.38,98.96,594.54,95.48z"/>
					
						<linearGradient id="SVGID_00000107562967517885827820000015377389927812947882_" gradientUnits="userSpaceOnUse" x1="609.1368" y1="148.1058" x2="609.2582" y2="157.9412">
						<stop  offset="0" style="stop-color:#E0653D"/>
						<stop  offset="1" style="stop-color:#E87950"/>
					</linearGradient>
					<path style="fill:url(#SVGID_00000107562967517885827820000015377389927812947882_);" d="M630.61,168.16
						c-1.85,5.04-7.28,15.75-20.08,16.12c-15.31,0.44-20.48-10.77-22.37-16.69c3.59-2.02,6.79-4.1,8.17-6.5
						c2.91-5.1,2.43-13.96,2.43-20.16l22.22,1.82c0,0-1.09,10.26,1.09,17C623.23,163.34,626.45,165.59,630.61,168.16z"/>
					<path class="st25" d="M654.79,209.3h-92.83c2.19-13.11,5.95-24.71,12.14-31.45c2.62-2.85,10.02-7.98,14.05-10.25
						c1.89,5.92,7.07,17.13,22.37,16.69c12.8-0.37,18.23-11.08,20.08-16.12c3.66,2.27,8.05,4.79,12.4,8.72
						C652.3,185.26,654.79,209.3,654.79,209.3z"/>
					<g>
						<g>
							<path class="st26" d="M625.52,130.5c0,11.04-7.56,19.69-14.82,19.49c-7.26-0.2-15.42-9.05-15.42-20.09
								s5.04-18.37,15.48-18.17C622.02,111.95,625.52,119.46,625.52,130.5z"/>
						</g>
					</g>
					<g>
						<g>
							<path class="st27" d="M625.27,126.83c0,0,4.01-1.02,4.22,4.29c0.21,5.31-4.67,4.61-4.67,4.61L625.27,126.83z"/>
						</g>
					</g>
					<g>
						<g>
							<path class="st27" d="M595.64,126.71c0,0-4.01-1.02-4.22,4.29c-0.21,5.31,4.66,4.61,4.66,4.61L595.64,126.71z"/>
						</g>
					</g>
					<g>
						<g>
							<path class="st28" d="M602.51,128.79c0,0.47-0.38,0.85-0.85,0.85s-0.85-0.38-0.85-0.85c0-0.47,0.38-0.85,0.85-0.85
								S602.51,128.32,602.51,128.79z"/>
						</g>
					</g>
					<g>
						<g>
							<circle class="st28" cx="619.63" cy="128.67" r="0.85"/>
						</g>
					</g>
					<g>
						<g>
							<path class="st27" d="M610.71,126.92l-3.26,7.65l2.43,0.71c0.51,0.15,1.06,0.14,1.56-0.02l2.48-0.81L610.71,126.92z"/>
						</g>
					</g>
					<path class="st23" d="M610.4,136.89c3.23-0.1,5.28,2.03,6.32,3.55c0.35,0.51-0.1,1.18-0.7,1.04c-1.25-0.28-3.19-0.59-5.5-0.55
						c-2.31,0.05-4.21,0.42-5.43,0.74c-0.59,0.16-1.07-0.49-0.74-1.01C605.3,139.15,607.19,136.99,610.4,136.89z"/>
					<path class="st23" d="M605.87,148.67c0,0,2.19-1.38,5.02-1.46s4.78,1.54,4.78,1.54s-2.19,4.21-4.61,4.37
						C608.62,153.28,605.87,148.67,605.87,148.67z"/>
					<g>
						<path class="st26" d="M561.96,209.3h20.07l0.99-7.95c-2.67-0.33-12.54-4.03-17.7-6.61
							C563.92,199.22,562.82,204.14,561.96,209.3z"/>
						<path class="st26" d="M652.02,194.86c-5.28,2.57-14.82,6.16-17.45,6.49l0.99,7.95h19.22
							C654.79,209.3,654.08,202.49,652.02,194.86z"/>
					</g>
				</g>
			</g>
		</g>
	</g>
</g>
<g>
	<g>
		<path class="st29" d="M931.24,443.11H580.37c-15.85,0-28.69,12.85-28.69,28.69v151.85c0,15.85,12.85,28.69,28.69,28.69h44.76
			l-17.42,39.94l56.07-39.94h267.46c15.85,0,28.69-12.85,28.69-28.69V471.8C959.93,455.96,947.09,443.11,931.24,443.11z"/>
	</g>
	<g>
		<g>
			<polygon class="st11" points="727.25,501.57 731.84,510.86 742.1,512.35 734.68,519.59 736.43,529.81 727.25,524.98 
				718.08,529.81 719.83,519.59 712.41,512.35 722.67,510.86 			"/>
			<polygon class="st11" points="763.81,501.57 768.4,510.86 778.66,512.35 771.24,519.59 772.99,529.81 763.81,524.98 
				754.64,529.81 756.39,519.59 748.97,512.35 759.23,510.86 			"/>
			<polygon class="st11" points="800.37,501.57 804.96,510.86 815.22,512.35 807.8,519.59 809.55,529.81 800.37,524.98 
				791.2,529.81 792.95,519.59 785.53,512.35 795.78,510.86 			"/>
			<polygon class="st11" points="836.93,501.57 841.52,510.86 851.78,512.35 844.35,519.59 846.11,529.81 836.93,524.98 
				827.76,529.81 829.51,519.59 822.08,512.35 832.34,510.86 			"/>
			<polygon class="st11" points="873.49,501.57 878.08,510.86 888.34,512.35 880.91,519.59 882.67,529.81 873.49,524.98 
				864.31,529.81 866.07,519.59 858.64,512.35 868.9,510.86 			"/>
		</g>
		<text transform="matrix(1.0003 0 0 1 716.4414 486.4719)" class="st12 st13 st14">Anna Parsons</text>
		<text transform="matrix(1.0003 0 0 1 588.6367 590.509)" class="st15 st13 st16">Review Left On</text>
		<rect x="716.84" y="545.53" class="st17" width="225.52" height="98.94"/>
		<text transform="matrix(1 0 0 1 716.8428 554.5657)"><tspan x="0" y="0" class="st12 st18 st19">I love working for John’s Candle Co.! </tspan><tspan x="0" y="17" class="st12 st18 st19">Not only are the pay and benefits </tspan><tspan x="0" y="34" class="st12 st18 st19">great, but the people are even better. </tspan><tspan x="0" y="51.01" class="st12 st18 st19">I would not hesitate to recommend </tspan><tspan x="0" y="68.01" class="st12 st18 st19">working here to my friends.</tspan></text>
		<g>
			<g>
				<path id="wordmark_3_" class="st30" d="M588.9,611.34h-2.86c-0.16,0-0.29,0.13-0.29,0.29v1.53c-0.72-1.18-2.25-2.14-4.25-2.14
					c-3.24,0-6.02,2.44-6.02,6.8c0,4.34,2.65,6.72,6.13,6.72c1.87,0,3.35-0.78,4.2-2.01v0.83c0,1.87-0.91,3.37-3.83,3.37
					c-1.47,0-2.65-0.48-3.69-1.42c-0.13-0.11-0.35-0.08-0.43,0.05l-1.28,2.17c-0.16,0.27-0.13,0.43-0.03,0.54
					c1.34,1.15,3.08,1.87,5.59,1.87c5.49,0,7.09-3.05,7.09-6.42V611.6C589.19,611.44,589.06,611.34,588.9,611.34z M582.42,621.35
					c-1.95,0-3.43-1.39-3.43-3.51c0-2.11,1.47-3.51,3.43-3.51c1.95,0,3.4,1.34,3.4,3.51C585.82,619.98,584.37,621.35,582.42,621.35z
					 M595.51,606.41v17.69c0,0.16-0.13,0.29-0.29,0.29h-2.89c-0.16,0-0.29-0.13-0.29-0.29v-17.69c0-0.16,0.13-0.29,0.29-0.29h2.89
					C595.37,606.12,595.51,606.25,595.51,606.41z M604.02,611.04c-2.73,0-4.79,0.91-5.73,2.73c-0.05,0.13-0.03,0.29,0.11,0.37
					l2.09,1.5c0.13,0.11,0.32,0.05,0.4-0.08c0.59-1.04,1.87-1.39,3.13-1.39c1.55,0,2.27,0.54,2.27,1.31v0.21
					c0,0.32-0.19,0.48-0.67,0.54l-3.59,0.32c-2.41,0.24-4.17,1.71-4.17,4.09c0,2.41,1.82,4.07,4.42,4.07c2.03,0,3.35-0.99,4.01-2.03
					v1.47c0,0.16,0.13,0.29,0.29,0.29h2.86c0.16,0,0.29-0.13,0.29-0.29v-7.79C609.74,612.73,607.82,611.04,604.02,611.04z
					 M606.29,619.12c0,1.45-1.18,2.68-3,2.68c-1.2,0-1.85-0.54-1.85-1.39c0-0.72,0.56-1.28,1.61-1.45l3.24-0.4V619.12z
					 M623.47,620.44c0,2.97-2.17,4.25-5.65,4.25c-2.41,0-4.47-0.64-5.65-1.98c-0.08-0.11-0.08-0.27,0-0.37l1.66-2.14
					c0.11-0.13,0.32-0.13,0.43-0.03c0.88,0.88,2.22,1.45,3.91,1.45c0.96,0,1.74-0.27,1.74-0.99c0-0.7-0.7-0.86-2.89-1.34
					c-1.93-0.4-4.34-1.28-4.34-4.12c0-2.65,2.09-4.15,5.51-4.15c2.25,0,3.85,0.67,5,1.74c0.11,0.11,0.11,0.27,0.03,0.4l-1.58,2.03
					c-0.11,0.13-0.29,0.16-0.4,0.05c-0.78-0.7-2.06-1.12-3.32-1.12c-1.07,0-1.66,0.35-1.66,0.91c0,0.64,0.7,0.8,3.02,1.31
					C621.54,616.85,623.47,617.71,623.47,620.44z M636.72,620.44c0,2.97-2.17,4.25-5.65,4.25c-2.41,0-4.47-0.64-5.65-1.98
					c-0.08-0.11-0.08-0.27,0-0.37l1.66-2.14c0.11-0.13,0.32-0.13,0.43-0.03c0.88,0.88,2.22,1.45,3.91,1.45
					c0.96,0,1.74-0.27,1.74-0.99c0-0.7-0.7-0.86-2.89-1.34c-1.93-0.4-4.34-1.28-4.34-4.12c0-2.65,2.09-4.15,5.51-4.15
					c2.25,0,3.85,0.67,5,1.74c0.11,0.11,0.11,0.27,0.03,0.4l-1.58,2.03c-0.11,0.13-0.29,0.16-0.4,0.05
					c-0.78-0.7-2.06-1.12-3.32-1.12c-1.07,0-1.66,0.35-1.66,0.91c0,0.64,0.7,0.8,3.02,1.31
					C634.79,616.85,636.72,617.71,636.72,620.44z M652.05,606.12h-2.86c-0.16,0-0.29,0.13-0.29,0.29v6.8
					c-0.88-1.26-2.35-2.22-4.39-2.22c-3.18,0-5.89,2.46-5.89,6.88s2.7,6.85,5.94,6.85c1.9,0,3.4-0.83,4.34-2.17v1.53
					c0,0.16,0.13,0.29,0.29,0.29h2.86c0.16,0,0.29-0.13,0.29-0.29v-17.69C652.34,606.25,652.21,606.12,652.05,606.12z
					 M645.57,621.37c-1.95,0-3.43-1.39-3.43-3.51c0-2.11,1.47-3.51,3.43-3.51c1.93,0,3.43,1.34,3.43,3.51
					C649,620.01,647.5,621.37,645.57,621.37z M661.5,611.02c-4.01,0-7.01,2.76-7.01,6.85c0,4.07,3,6.85,7.01,6.85
					c4.01,0,7.01-2.76,7.01-6.85C668.51,613.8,665.51,611.02,661.5,611.02z M661.5,621.32c-1.95,0-3.48-1.39-3.48-3.48
					s1.53-3.48,3.48-3.48c1.95,0,3.48,1.39,3.48,3.48C664.95,619.95,663.45,621.32,661.5,621.32z M677.42,611.02
					c-4.01,0-7.01,2.76-7.01,6.85c0,4.07,3,6.85,7.01,6.85s7.01-2.76,7.01-6.85C684.46,613.8,681.46,611.02,677.42,611.02z
					 M677.42,621.32c-1.95,0-3.48-1.39-3.48-3.48s1.53-3.48,3.48-3.48s3.48,1.39,3.48,3.48C680.9,619.95,679.4,621.32,677.42,621.32
					z M695.75,611.63c0-0.13-0.11-0.27-0.21-0.32c-0.27-0.13-0.67-0.24-1.47-0.24c-1.82,0-3.45,0.91-4.15,2.41v-1.85
					c0-0.16-0.13-0.29-0.29-0.29h-2.73c-0.16,0-0.29,0.13-0.29,0.29v12.47c0,0.16,0.13,0.29,0.29,0.29h2.86
					c0.16,0,0.29-0.13,0.29-0.29v-5.62c0-2.52,1.74-3.75,4.01-3.75c0.54,0,1.07,0.11,1.31,0.21c0.19,0.05,0.37-0.08,0.37-0.27
					V611.63z"/>
			</g>
			<g>
				<path class="st30" d="M697.25,610.61c0-0.1,0.01-0.19,0.04-0.28c0.02-0.09,0.06-0.17,0.1-0.25c0.05-0.08,0.1-0.15,0.16-0.21
					c0.06-0.06,0.13-0.12,0.21-0.16c0.08-0.05,0.16-0.08,0.25-0.11c0.09-0.02,0.18-0.04,0.28-0.04s0.19,0.01,0.28,0.04
					c0.09,0.02,0.17,0.06,0.25,0.11c0.08,0.05,0.15,0.1,0.21,0.16c0.06,0.06,0.12,0.13,0.16,0.21c0.05,0.08,0.08,0.16,0.1,0.25
					c0.02,0.09,0.04,0.18,0.04,0.28c0,0.1-0.01,0.19-0.04,0.28c-0.02,0.09-0.06,0.17-0.1,0.25c-0.05,0.08-0.1,0.15-0.16,0.21
					c-0.06,0.06-0.13,0.12-0.21,0.16c-0.08,0.05-0.16,0.08-0.25,0.11c-0.09,0.02-0.18,0.04-0.28,0.04s-0.19-0.01-0.28-0.04
					c-0.09-0.02-0.17-0.06-0.25-0.11c-0.08-0.05-0.15-0.1-0.21-0.16c-0.06-0.06-0.12-0.13-0.16-0.21c-0.05-0.08-0.08-0.16-0.1-0.25
					C697.26,610.8,697.25,610.71,697.25,610.61z M697.39,610.61c0,0.08,0.01,0.17,0.03,0.24c0.02,0.08,0.05,0.15,0.09,0.22
					c0.04,0.07,0.09,0.13,0.14,0.18c0.05,0.06,0.11,0.1,0.18,0.14c0.07,0.04,0.14,0.07,0.21,0.09c0.08,0.02,0.16,0.03,0.24,0.03
					c0.13,0,0.24-0.02,0.35-0.07c0.11-0.05,0.2-0.11,0.29-0.19c0.08-0.08,0.15-0.18,0.19-0.29c0.05-0.11,0.07-0.23,0.07-0.36
					c0-0.08-0.01-0.17-0.03-0.24c-0.02-0.08-0.05-0.15-0.09-0.22c-0.04-0.07-0.09-0.13-0.14-0.19c-0.05-0.06-0.12-0.1-0.18-0.14
					c-0.07-0.04-0.14-0.07-0.22-0.09c-0.08-0.02-0.16-0.03-0.24-0.03c-0.13,0-0.24,0.02-0.35,0.07c-0.11,0.05-0.2,0.11-0.28,0.2
					c-0.08,0.08-0.14,0.18-0.19,0.29C697.41,610.37,697.39,610.49,697.39,610.61z M698.08,610.74v0.5h-0.22v-1.27h0.41
					c0.16,0,0.28,0.03,0.36,0.09c0.08,0.06,0.12,0.15,0.12,0.26c0,0.09-0.03,0.17-0.08,0.23c-0.05,0.06-0.13,0.11-0.23,0.13
					c0.02,0.01,0.03,0.02,0.04,0.04c0.01,0.01,0.02,0.03,0.03,0.05l0.32,0.48h-0.21c-0.03,0-0.05-0.01-0.07-0.04l-0.29-0.43
					c-0.01-0.01-0.02-0.02-0.03-0.03c-0.01-0.01-0.03-0.01-0.06-0.01H698.08z M698.08,610.58h0.17c0.05,0,0.1,0,0.13-0.01
					c0.04-0.01,0.07-0.02,0.09-0.04c0.02-0.02,0.04-0.04,0.05-0.07c0.01-0.03,0.02-0.06,0.02-0.1c0-0.04,0-0.07-0.01-0.09
					c-0.01-0.03-0.02-0.05-0.04-0.07c-0.02-0.02-0.05-0.03-0.08-0.04c-0.03-0.01-0.07-0.01-0.12-0.01h-0.19V610.58z"/>
			</g>
		</g>
		<g>
			<defs>
				<circle id="SVGID_00000083791919986905514790000012826965402835931787_" cx="634.52" cy="514.55" r="52.89"/>
			</defs>
			<use xlink:href="#SVGID_00000083791919986905514790000012826965402835931787_"  style="overflow:visible;fill:#D1EFE8;"/>
			<clipPath id="SVGID_00000061472154477565142660000003436184425730416314_">
				<use xlink:href="#SVGID_00000083791919986905514790000012826965402835931787_"  style="overflow:visible;"/>
			</clipPath>
			<g style="clip-path:url(#SVGID_00000061472154477565142660000003436184425730416314_);">
				<path class="st23" d="M627.49,535.57c-0.75-0.03-1.46,0.32-1.89,0.92c-1.39,1.93-3.62,6.32-6.85,8.91
					c-4.18,3.34-16.55,7.52-20.23,17.55c-3.68,10.03-10.03,32.93-10.03,32.93h12.37l8.19-21.56c0,0,4.68,17.55,5.35,20.89h34.27
					c0,0,1.67-8.02,3.01-9.19c1.34-1.17,3.18-2.84,3.18-2.84l1,12.54h11.03c0,0-2.51-29.59-6.35-36.44
					c-3.84-6.85-8.69-8.19-12.98-13.39c-1.54-1.87-2.21-5.71-2.8-8.01c-0.25-0.98-1.12-1.68-2.13-1.72L627.49,535.57z"/>
				<path class="st32" d="M640.49,486.3c-0.37-3.42-3.12-8.54-7.8-8.47c-4.68,0.07-6.39,2.67-7.43,4.46
					c-1.04,1.78-4.01,3.71-7.87,4.16c-3.86,0.45-5.42,4.31-4.68,7.43c0.74,3.12-0.74,5.72-3.19,7.13s-4.68,5.35-2.75,8.69
					c1.93,3.34,3.57,4.83,2.3,9.06c-1.26,4.23,3.12,8.32,6.69,7.21c3.57-1.11,4.53-1.19,6.17,0.15c1.63,1.34,4.16,4.16,7.87,2.53
					C633.51,527.01,640.49,486.3,640.49,486.3z"/>
				
					<linearGradient id="SVGID_00000150077875034403716850000013470469519022293182_" gradientUnits="userSpaceOnUse" x1="640.5911" y1="527.563" x2="628.7235" y2="525.9654">
					<stop  offset="0" style="stop-color:#E0653D"/>
					<stop  offset="1" style="stop-color:#E87950"/>
				</linearGradient>
				<path style="fill:url(#SVGID_00000150077875034403716850000013470469519022293182_);" d="M627.15,512.41
					c-0.33,8.8-0.56,25.74-0.56,25.74s4.01,1.89,8.91,1.89s8.47-0.67,8.47-0.67l0.45-10.25L627.15,512.41z"/>
				<path class="st26" d="M627.15,512.41c-0.33,5.46,4.75,19.78,12.26,21.06c8.47,1.45,15.6-8.02,18.83-14.71
					c2.65-5.48,3.34-12.03,1.34-18.61c-2.01-6.57-15.27-8.25-22.29-5.35C630.27,497.7,627.63,504.58,627.15,512.41z"/>
				<g>
					<g>
						<g>
							<path class="st8" d="M641.16,522.16c-0.45,1.41,0.9,3.09,3.01,3.77c2.11,0.67,4.19,0.08,4.63-1.33
								c0.45-1.41-1.58-0.51-3.69-1.18C643,522.74,641.61,520.75,641.16,522.16z"/>
						</g>
					</g>
				</g>
				<g>
					<g>
						<path class="st27" d="M648.44,515l-2.67,5.41l3.18,1.13c0.44,0.16,0.85-0.11,0.77-0.5L648.44,515z"/>
					</g>
				</g>
				<g>
					<g>
						<circle class="st28" cx="639.08" cy="511.78" r="0.78"/>
					</g>
				</g>
				<g>
					<g>
						<circle class="st28" cx="654.23" cy="518.54" r="0.78"/>
					</g>
				</g>
				<g>
					<g>
						<circle class="st27" cx="636.25" cy="517.35" r="2.56"/>
					</g>
				</g>
				<path class="st27" d="M653.93,522.88c-1.42,0-2.56,1.15-2.56,2.56c0,0.85,0.41,1.6,1.05,2.06c1.16-1.28,2.21-2.66,3.13-4.05
					C655.11,523.1,654.55,522.88,653.93,522.88z"/>
				<path class="st34" d="M639,496.47c0,0-4.83,2.6-7.35,6.09s-3.34,7.95-3.34,7.95s-3.79-4.16-2.9-10.4
					c0.58-4.08,4.53-13.22,15.97-14.26s17.98,7.73,19.39,11.59s2.23,10.47-0.74,16.49c0,0,0.67-6.17,0.15-10.55
					c0,0-3.49,0.82-9.88-1.26C643.91,500.04,639,496.47,639,496.47z"/>
				<g>
					<g>
						<path class="st27" d="M628.5,504.32c0,0-3.49-1.5-4.44,3.29c-0.95,4.79,3.57,4.84,3.57,4.84L628.5,504.32z"/>
					</g>
				</g>
			</g>
		</g>
	</g>
	<g>
		<circle class="st35" cx="677.31" cy="475.22" r="15.47"/>
		<path class="st8" d="M675.37,481.02c-0.49,0-0.99-0.19-1.37-0.57l-3.87-3.87c-0.76-0.76-0.76-1.98,0-2.74
			c0.76-0.76,1.98-0.76,2.74,0l2.5,2.5l6.37-6.37c0.76-0.76,1.98-0.76,2.74,0c0.76,0.76,0.76,1.98,0,2.74l-7.74,7.74
			C676.36,480.83,675.87,481.02,675.37,481.02z"/>
	</g>
</g>
<g>
	<g>
		<path class="st36" d="M102.05,256.29h350.87c15.85,0,28.69,12.85,28.69,28.69v151.85c0,15.85-12.85,28.69-28.69,28.69h-44.76
			l17.42,39.94l-56.07-39.94H102.05c-15.85,0-28.69-12.85-28.69-28.69V284.98C73.36,269.14,86.21,256.29,102.05,256.29z"/>
	</g>
	<g>
		<g>
			<polygon class="st11" points="248.94,314.74 253.52,324.04 263.78,325.53 256.36,332.77 258.11,342.98 248.94,338.16 
				239.76,342.98 241.51,332.77 234.09,325.53 244.35,324.04 			"/>
			<polygon class="st11" points="285.5,314.74 290.08,324.04 300.34,325.53 292.92,332.77 294.67,342.98 285.5,338.16 
				276.32,342.98 278.07,332.77 270.65,325.53 280.91,324.04 			"/>
			<polygon class="st11" points="322.05,314.74 326.64,324.04 336.9,325.53 329.48,332.77 331.23,342.98 322.05,338.16 
				312.88,342.98 314.63,332.77 307.21,325.53 317.47,324.04 			"/>
			<polygon class="st11" points="358.61,314.74 363.2,324.04 373.46,325.53 366.04,332.77 367.79,342.98 358.61,338.16 
				349.44,342.98 351.19,332.77 343.77,325.53 354.02,324.04 			"/>
			<polygon class="st11" points="395.17,314.74 399.76,324.04 410.02,325.53 402.6,332.77 404.35,342.98 395.17,338.16 386,342.98 
				387.75,332.77 380.32,325.53 390.58,324.04 			"/>
		</g>
		<text transform="matrix(1.0003 0 0 1 238.123 299.6477)" class="st12 st13 st14">Melissa Ackworth</text>
		<text transform="matrix(1.0003 0 0 1 110.3183 405.9543)" class="st15 st13 st16">Review Left On</text>
		<rect x="238.52" y="358.7" class="st17" width="215.55" height="88.19"/>
		<text transform="matrix(1 0 0 1 238.5244 367.7415)"><tspan x="0" y="0" class="st12 st18 st19">John’s Candle Co. is a great </tspan><tspan x="0" y="17" class="st12 st18 st19">company. I appreciate their stance </tspan><tspan x="0" y="34" class="st12 st18 st19">on sustainability by only using </tspan><tspan x="0" y="51.01" class="st12 st18 st19">organic vegetable by-products for </tspan><tspan x="0" y="68.01" class="st12 st18 st19">their waxes and scents.</tspan></text>
		<g id="XMLID_11_">
			<path id="XMLID_10_" class="st37" d="M123.97,428.87v2.88h6.88c-0.21,1.61-0.75,2.8-1.57,3.63c-1.01,1.01-2.57,2.11-5.31,2.11
				c-4.24,0-7.55-3.42-7.55-7.65c0-4.24,3.31-7.65,7.55-7.65c2.28,0,3.95,0.9,5.18,2.06l2.02-2.02c-1.71-1.66-4-2.93-7.21-2.93
				c-5.8,0-10.68,4.73-10.68,10.53c0,5.8,4.88,10.53,10.68,10.53c3.14,0,5.5-1.03,7.35-2.95c1.9-1.9,2.49-4.58,2.49-6.73
				c0-0.67-0.05-1.29-0.15-1.8H123.97z"/>
			<path id="XMLID_24_" class="st38" d="M142.41,426.53c-3.76,0-6.82,2.86-6.82,6.8c0,3.91,3.07,6.8,6.82,6.8s6.82-2.88,6.82-6.8
				C149.23,429.38,146.17,426.53,142.41,426.53z M142.41,437.45c-2.06,0-3.84-1.7-3.84-4.12c0-2.45,1.78-4.12,3.84-4.12
				s3.84,1.67,3.84,4.12C146.25,435.75,144.47,437.45,142.41,437.45z"/>
			<path id="XMLID_21_" class="st37" d="M175.85,428.05h-0.11c-0.67-0.8-1.95-1.52-3.58-1.52c-3.39,0-6.35,2.96-6.35,6.8
				c0,3.81,2.96,6.8,6.35,6.8c1.63,0,2.91-0.73,3.58-1.54h0.11v0.95c0,2.6-1.39,3.99-3.63,3.99c-1.83,0-2.96-1.31-3.43-2.42
				l-2.6,1.08c0.75,1.8,2.73,4.01,6.03,4.01c3.5,0,6.46-2.06,6.46-7.08v-12.23h-2.83V428.05z M172.42,437.45
				c-2.06,0-3.63-1.76-3.63-4.12c0-2.4,1.57-4.12,3.63-4.12c2.04,0,3.63,1.76,3.63,4.14C176.06,435.72,174.46,437.45,172.42,437.45z
				"/>
			<path id="XMLID_18_" class="st39" d="M157.62,426.53c-3.76,0-6.82,2.86-6.82,6.8c0,3.91,3.07,6.8,6.82,6.8s6.82-2.88,6.82-6.8
				C164.44,429.38,161.38,426.53,157.62,426.53z M157.62,437.45c-2.06,0-3.84-1.7-3.84-4.12c0-2.45,1.78-4.12,3.84-4.12
				s3.84,1.67,3.84,4.12C161.46,435.75,159.68,437.45,157.62,437.45z"/>
			<path id="XMLID_3_" class="st40" d="M181.02,419.57h2.94v20.56h-2.94V419.57z"/>
			<path id="XMLID_14_" class="st38" d="M193.03,437.45c-1.52,0-2.6-0.69-3.3-2.06l9.09-3.76l-0.3-0.77
				c-0.56-1.52-2.29-4.33-5.82-4.33c-3.5,0-6.41,2.75-6.41,6.8c0,3.81,2.88,6.8,6.74,6.8c3.11,0,4.91-1.91,5.66-3.01l-2.32-1.54
				C195.6,436.7,194.55,437.45,193.03,437.45L193.03,437.45z M192.82,429.08c1.21,0,2.23,0.62,2.57,1.5l-6.14,2.54
				C189.25,430.26,191.27,429.08,192.82,429.08z"/>
		</g>
		<g>
			<g>
				<defs>
					<circle id="SVGID_00000096022507903720981460000008870547362140130492_" cx="156.18" cy="327.45" r="52.89"/>
				</defs>
				<use xlink:href="#SVGID_00000096022507903720981460000008870547362140130492_"  style="overflow:visible;fill:#1B4E61;"/>
				<clipPath id="SVGID_00000136389853932713463430000008185471242432554173_">
					<use xlink:href="#SVGID_00000096022507903720981460000008870547362140130492_"  style="overflow:visible;"/>
				</clipPath>
				<g style="clip-path:url(#SVGID_00000136389853932713463430000008185471242432554173_);">
					
						<linearGradient id="SVGID_00000119811112404667580540000005736350049251180212_" gradientUnits="userSpaceOnUse" x1="158.0485" y1="338.4724" x2="157.9312" y2="354.1906">
						<stop  offset="0" style="stop-color:#E0653D"/>
						<stop  offset="1" style="stop-color:#E87950"/>
					</linearGradient>
					<path style="fill:url(#SVGID_00000119811112404667580540000005736350049251180212_);" d="M173.21,358.34
						c-1.76,4.83-8.31,11.5-15.03,11.09c-7.01-0.43-13.83-6.05-15.58-13.37c1.85-0.99,3.11-2.15,3.38-3.75
						c1.17-7.04,1.05-20.76,1.05-20.76l18.89-0.59c0,0,0.7,18.53,3.28,23.7C169.84,355.91,171.3,357.12,173.21,358.34z"/>
					<path class="st26" d="M151.85,297.65c5.73-0.59,17.01,0.23,18.3,14.55c1.29,14.31-2.58,26.74-12.67,26.51
						c-10.09-0.23-12.79-7.86-14.55-17.83S143.87,298.47,151.85,297.65z"/>
					<g>
						<g>
							<path class="st27" d="M157.38,317.12l-3.25,7.62l2.42,0.71c0.51,0.15,1.05,0.14,1.56-0.02l2.47-0.8L157.38,317.12z"/>
						</g>
					</g>
					<g>
						<g>
							
								<ellipse transform="matrix(0.2298 -0.9732 0.9732 0.2298 -200.8416 393.3626)" class="st27" cx="148.1" cy="323.57" rx="2.23" ry="2.23"/>
						</g>
					</g>
					<g>
						<g>
							<circle class="st27" cx="165.46" cy="323.57" r="2.23"/>
						</g>
					</g>
					<g>
						<g>
							<path class="st28" d="M149.86,317.23c0,0.45-0.37,0.82-0.82,0.82c-0.45,0-0.82-0.37-0.82-0.82c0-0.45,0.37-0.82,0.82-0.82
								C149.49,316.41,149.86,316.78,149.86,317.23z"/>
						</g>
					</g>
					<g>
						<g>
							<path class="st28" d="M165.11,317.47c0,0.45-0.37,0.82-0.82,0.82c-0.45,0-0.82-0.37-0.82-0.82s0.37-0.82,0.82-0.82
								C164.74,316.65,165.11,317.02,165.11,317.47z"/>
						</g>
					</g>
					<path class="st43" d="M191.03,369.73c-3.51-0.61-7.84,0.47-9.5,8.38c-1.1,5.22,1.88,8.65,2.46,12.9
						c0.49,3.61-3.17,8.63-2.82,10.09h-46.57c0.64-3.79-6.44-11.52-5.28-16.54c1.37-5.95-1.99-15.75-8.65-16.27
						c4.27-7.79,16.04-9.1,21.92-12.23c1.75,7.33,8.57,12.95,15.58,13.37c6.72,0.41,13.26-6.26,15.03-11.09
						C178.18,361.53,186.25,364.87,191.03,369.73z"/>
					<path class="st26" d="M132.85,381.16c-1.16,5.02-3.07,16.15-3.71,19.94h-14.35c0,0,0.7-19.24,5.16-31.2
						c0.21-0.57,0.46-1.1,0.74-1.61C127.34,368.82,134.22,375.21,132.85,381.16z"/>
					<path class="st26" d="M199.47,401.1h-14.89c-0.36-1.46-0.98-4.25-1.47-7.86c-0.58-4.26-2.68-9.91-1.58-15.13
						c1.66-7.92,5.99-8.99,9.5-8.38c0.92,0.94,1.72,1.93,2.35,2.99C198.54,381.4,199.47,401.1,199.47,401.1z"/>
					<path class="st29" d="M192.91,344.45c0.12-1.52,1.76-1.99,1.76-3.99s-2.35-2.35-2.35-4.22c0-1.88,1.52-1.88,1.29-3.28
						c-0.23-1.41-2.7-1.76-3.28-3.64c-0.59-1.88,2.58-2.11,2.35-3.99c-0.23-1.88-2.58-1.52-2.93-3.28
						c-0.35-1.76,2.46-1.88,2.23-3.75c-0.23-1.88-2.11-1.41-2.82-3.52c-0.7-2.11,1.41-2.35,1.06-4.69c-0.35-2.35-2.58-1.88-3.4-3.28
						c-0.82-1.41,0.59-2.58,0.12-4.22c-0.47-1.64-2.82-1.17-3.52-2.35c-0.7-1.17,0.7-1.88-0.7-3.87c-1.41-1.99-2.23,0.27-4.97-2.7
						c-1.58-1.71-3.08,0.5-4.77,0c-0.98-0.29-1.63-2.59-2.74-2.89c-1.51-0.41-2.65,1.3-3.99,0.94c-1.53-0.41-2.59-1.34-3.21-1.56
						c-2.23-0.82-3.32,1.76-4.97,1.41c-1.64-0.35-2.46-1.41-4.69-0.12c-2.23,1.29-2.46,3.64-2.46,3.64s-1.41-0.59-2.7-0.23
						c-0.86,0.23-1.84,1.61-3.87,2.11c-1.02,0.25-2.64-1.02-4.14-0.47c-3.44,1.25-0.37,4.63-4.61,5.16c-1.88,0.23-3.84-0.49-5,0.39
						c-1.96,1.49-1.68,3.21-2.03,4.61c-0.35,1.41-3.52,1.52-4.11,3.4c-0.59,1.88-0.27,3.79-0.39,5.32
						c-0.12,1.52-1.99,1.52-1.88,4.46c0.12,2.93,1.29,2.31,2.11,4.3c0.82,1.99-1.88,3.01-2.11,5c-0.23,1.99,1.37,3.21,1.25,4.38
						c-0.12,1.17-1.76,1.88-2.11,3.99c-0.35,2.11,1.56,2.27,1.68,4.03c0.12,1.76-1.76,2.23-1.88,4.46
						c-0.12,2.23,2.23,2.46,2.58,4.34c0.35,1.88-1.17,2.7-0.82,4.69c0.35,1.99,2.7,1.99,3.52,3.99c0.82,1.99-0.7,2.7-0.59,5.04
						c0.12,2.35,1.99,1.52,2.7,3.75c0.7,2.23-0.7,2.93-0.7,5.4s3.05,1.76,3.99,3.64c0.94,1.88-0.47,2.58,0.12,4.69
						c0.26,0.93,0.68,1.43,1.06,1.78c0.09,0.16,0.2,0.31,0.34,0.46c-0.07-0.07-0.03,0.05,0.01,0.12c-0.01,0.05-0.02,0.1-0.03,0.14
						c-0.21,0.85-0.25,1.74,0.21,2.52c0.38,0.65,1.05,1.14,1.77,1.33c0.52,0.14,1.03,0.05,1.54,0.09c0.19,0.47,0.12,1.08,0.3,1.62
						c0.47,1.46,1.71,2.62,3.3,2.61c0.64-0.01,1.29-0.24,1.82-0.59c0.27-0.18,0.53-0.4,0.77-0.61c0.05-0.05,0.1-0.09,0.15-0.14
						c0.23,0.07,0.68,0.18,0.72,0.19c0.68,0.15,1.42,0.19,2.09-0.02c1.47-0.45,2.31-1.85,2.25-3.34c-0.03-0.67-0.19-1.07-0.16-1.54
						c0.02-0.35,0.17-0.68,0.42-1.06c0.15-0.23,0.23-0.47,0.27-0.73c0.82-0.3,1.47-1.04,1.81-1.78c0.59-1.29-0.7-1.76-1.17-3.75
						c-0.47-1.99,1.99-1.52,2.46-2.93c0.47-1.41-1.06-1.88-0.82-3.4c0.23-1.52,1.88-0.82,2.7-3.4c0.82-2.58-1.52-3.05-1.52-4.69
						c0-1.64,1.41-0.94,1.52-3.28c0.12-2.35-2.11-2.23-2.46-4.11c-0.35-1.88,1.41-1.64,0.94-3.75c-0.47-2.11-2.66-2.42-2.31-4.07
						c0.35-1.64,1.96-1.45,1.72-3.91c-0.23-2.46-2.03-2.03-2.5-3.68c-0.47-1.64,1.06-2.11,0.7-4.93c-0.35-2.82-1.8-1.49-2.74-3.6
						c-0.94-2.11,0.12-2.11,0-4.93c-0.12-2.82-2.31-2.35-2.19-4.22c0.12-1.88,1.64-2.54,0.94-5c-0.7-2.46-2.02-1.45-1.25-5.4
						c0.17-0.88,1.8-1.17,2.82-4.07c0.63-1.79-1.17-3.21,0.08-5.63c0.55-1.06,1.7-0.9,2.58-1.64c1.23-1.04,2.15-2.78,2.15-2.78
						s2.54-1.29,3.95,0.04c1.29,1.21-0.04,2.51,2.11,3.52c2.5,1.17,3.22-0.81,4.61,0.39c1.64,1.41,0.63,3.11,0.78,4.3
						c0.31,2.42,2.39,0.9,2.5,2.42c0.12,1.52-1.17,1.72-1.02,3.28c0.23,2.34,2.58,2.82,2.66,4.81c0.04,0.94-1.29,1.99-1.06,3.75
						c0.23,1.76,1.17,2.82,0.94,4.11c-0.23,1.29-1.29,1.88-1.64,3.28c-0.35,1.41,0.59,3.05,0.23,5.16
						c-0.35,2.11-2.11,1.88-1.88,3.05c0.23,1.17,0.47,2.46,0.23,4.11c-0.23,1.64-0.7,1.52-0.59,3.52c0.12,1.99,2.35,3.05,1.88,4.46
						c-0.47,1.41-0.12,3.28,0.47,5.16c0.59,1.88-1.52,3.4-2.11,4.57c-0.59,1.17-0.35,2.7,0.82,4.34c1.17,1.64,0.12,2.23-0.23,3.99
						c-0.35,1.76,0.59,1.99,1.17,3.99c0.59,1.99-0.59,2.93-1.29,4.46c-0.7,1.52,1.41,1.88,1.76,3.17c0.34,1.26-1.21,2.07,0.24,3.64
						c0.05,0.07,0.09,0.14,0.15,0.21c0.36,0.46,0.85,0.73,1.36,0.97c0.27,0.12,0.53,0.18,0.58,0.48c0.05,0.3-0.45,0.87-0.59,1.16
						c-0.32,0.69-0.5,1.45-0.33,2.2c0.33,1.49,1.56,2.15,2.79,2.81c1.11,0.6,0.58,1.48,0.56,2.54c-0.03,1.37,0.77,2.63,2.14,2.96
						c1.2,0.29,2.58-0.26,3.19-1.34c0.35-0.62,0.37-1.34,0.28-2.02c-0.06-0.42-0.23-0.68,0.03-0.98c0.26-0.31,0.81-0.39,1.17-0.52
						c0.61-0.22,1.23-0.47,1.71-0.92c0.58-0.54,0.9-1.31,0.88-2.1c-0.03-0.81-0.48-1.4-0.86-2.07c-0.63-1.12,0.97-2.19,1.72-2.8
						c0.11-0.09,0.2-0.2,0.28-0.32c0.45-0.12,0.78-0.24,0.92-0.37c1.17-1.06-0.7-2.11-0.47-3.28c0.23-1.17,1.64-0.59,2.35-1.99
						c0.7-1.41-0.82-1.88-0.47-3.17c0.35-1.29,1.88,0.35,3.05-1.29c1.17-1.64-1.06-1.76-0.35-3.05c0.7-1.29,2.46-0.59,3.17-1.99
						c0.7-1.41-1.41-2.58-1.29-3.99c0.12-1.41,1.52-0.94,2.46-2.7c0.94-1.76-1.88-2.11-1.64-3.64c0.23-1.52,1.29-0.59,2.58-2.58
						c1.29-1.99-1.06-1.99-0.47-3.64c0.59-1.64,2.23-1.17,2.46-2.46C194.31,347.73,192.79,345.97,192.91,344.45z M136.97,388.04
						c-0.01,0.03-0.09-0.04-0.13-0.08c0.03,0,0.06,0,0.09,0.01c-0.04-0.01-0.07-0.01-0.1-0.02c-0.01-0.01-0.01-0.01-0.01-0.02
						c0,0,0,0.01,0,0.01C136.68,387.91,137.01,387.9,136.97,388.04z"/>
					<g>
						<g>
							<g>
								<path class="st8" d="M153.02,327.77c-0.01,1.55,1.88,2.83,4.21,2.84c2.33,0.01,4.23-1.24,4.24-2.79s-1.75-0.01-4.08-0.02
									S153.03,326.22,153.02,327.77z"/>
							</g>
						</g>
					</g>
				</g>
			</g>
		</g>
	</g>
</g>
<g>
	<circle class="st35" cx="198.93" cy="291.32" r="15.47"/>
	<path class="st8" d="M197,297.12c-0.49,0-0.99-0.19-1.37-0.57l-3.87-3.87c-0.76-0.76-0.76-1.98,0-2.74s1.98-0.76,2.74,0l2.5,2.5
		l6.37-6.37c0.76-0.76,1.98-0.76,2.74,0s0.76,1.98,0,2.74l-7.74,7.74C197.99,296.93,197.49,297.12,197,297.12z"/>
</g>
<g>
	<circle class="st35" cx="652.87" cy="93.08" r="15.46"/>
	<path class="st8" d="M650.94,98.88c-0.49,0-0.99-0.19-1.37-0.57l-3.87-3.87c-0.76-0.76-0.76-1.98,0-2.73
		c0.76-0.76,1.98-0.76,2.73,0l2.5,2.5l6.36-6.36c0.76-0.76,1.98-0.76,2.73,0s0.76,1.98,0,2.73l-7.73,7.73
		C651.93,98.69,651.43,98.88,650.94,98.88z"/>
</g>
</svg>
